<svg xmlns="http://www.w3.org/2000/svg"><defs><font horiz-adv-x="1228"><font-face ascent="1638" descent="-410" units-per-em="2048"/><missing-glyph horiz-adv-x="500"/><glyph unicode="&#x20;"/><glyph d="M514 0v201h195v-201h-195zM516 1348h197l-25-951h-147z" unicode="&#x21;"/><glyph d="M276 1485h226l-43-639h-142zM725 1485h225l-43-639h-141z" unicode="&#x22;"/><glyph d="M53 408v108h226l67 318h-242v106h265l88 410h110l-88-410h363l88 410h110l-88-410h211v-106h-233l-68-318h260v-108h-282l-88-408h-111l86 408h-362l-84-408h-111l86 408h-203zM389 516h363l67 318h-360z" unicode="&#x23;"/><glyph d="M66 379l170 37q10-45 34-99 23-49 60-79 39-33 96-56 55-23 131-24v489q-2 0-7 1t-7 3q-6 0-11 2l-2 1-2 1q-66 16-98 27-57 18-92 33-45 18-82 47-43 31-68 65-29 39-43 84-16 53-16 113 0 80 33 141 31 57 90 99 55 39 135 59 72 18 170 23v131h129v-131q100-2 174-25 63-18 123-64 53-41 84-98 29-53 51-135l-174-33q-8 43-29 88-16 37-51 68-33 31-76 45-49 18-102 20v-426q18-4 57-14t58-14q53-14 108-37 47-18 97-51 37-25 75-70 33-39 51.5-94t18.5-125q0-72-28.5-139.5t-86.5-112.5q-63-49-143-76-82-27-207-33v-161h-129v161q-213 6-336 99-120 90-155 260zM301 1018q0-55 21-90 16-31 55-58 31-23 80-39l100-28v411q-70-2-119-18-49-15-79.5-43t-43.5-61q-14-39-14-74zM686 156q68 4 119 18 52 15 92 43 35 25 59 70 23 41 23 96 0 65-25 104-27 43-63 66-47 29-94 43l-111 31v-471z" unicode="&#x24;"/><glyph d="M0 1024q0 96 23 164 22 65 61 104 37 37 92 53.5t115 16.5q55 0 110-16 53-14 91-54 37-37 59-104.5t22-163.5q0-92-22-160-22-65-62-104-39-39-90-57.5t-112.5-18.5-112.5 18q-53 18-90 56-39 39-61.5 106.5t-22.5 159.5zM76 0l932 1354h147l-934-1354h-145zM147 1024q0-68 8.5-106.5t28.5-69.5q18-27 45-39 29-12 60-12 33 0 57 12 27 12 43 39 20 31 28.5 69.5t8.5 106.5q0 72-8 111-10 47-27 71-18 28-43 37-27 10-57 10-37 0-64-12-29-12-45-37-16-27-26-69-9-39-9-111zM655 330q0 94 23 162 22 65 61 104 37 37 92.5 53.5t114.5 16.5q55 0 111-17 53-14 90-53 40-40 61-104 23-68 23-162t-23-162q-22-65-61-105-39-39-92-57-51-18-113-18-57 0-110.5 18.5t-92.5 56.5q-40 40-61 105-23 68-23 162zM803 330q0-61 10-109 10-43 27-69 18-27 45-39 29-12 59-13 35 0 59.5 12.5t43.5 39.5q16 27 26 69 10 47 10 108.5t-10 108.5-26 72q-18 28-43 37-27 10-58 10-39 0-61-10-27-12-45-39-20-31-28.5-69.5t-8.5-108.5z" unicode="&#x25;"/><glyph d="M43 358q0 72 23 140 20 61 61 114 40 52 92 93 51 39 117 71-16 29-29 64-23 63-24 69-12 49-17 74-6 37-6 76 0 63 21 117 20 51 65 94 45 41 111 63 74 25 153 25 70 0 129-19 61-20 103-51 39-31 65-84 25-49 25-114 0-68-35-125-33-55-90-97-63-47-131-77l-152-68q20-37 64-105 41-66 63.5-98.5t71.5-93.5q37-46 80-92 37 76 71 184 33 102 54 221l143-43q-25-141-67-254-37-98-95-209 43-55 92.5-79.5t88.5-24.5q18 0 51 4 23 2 45 12v-135q-16-8-53-16-28-6-62-6-37 0-78 10-35 8-71 29-45 25-64 41-28 25-49 49-31-27-64-49-45-31-79-45-45-18-95-31-52-12-110-12-106 0-189 28-76 27-129 80-49 49-75 121-25 67-25 149zM211 362q0-49 16-98 14-45 47-80 31-35 82-53 55-20 113-20 33 0 74 10 33 8 65 24 35 18 56 33 16 12 43 39-102 115-170 213-102 145-148 227-84-45-131-121t-47-174zM408 1057q0-65 18-123 14-45 43-103l121 54q49 23 98 53 41 27 68 66 25 37 24 81 0 34-12 62-12 29-35 47-20 18-53 31-31 12-72 12-37 0-80-14-33-10-63-35-23-18-41-58-16-36-16-73z" unicode="&#x26;"/><glyph d="M502 1485h223l-41-639h-141z" unicode="&#x27;"/><glyph d="M342 532q0 147 20 269 18 111 68 239 43 114 111 222 74 117 159 223h191q-96-119-164-232-74-123-113-227-45-119-65-238-20-117-21-258 0-143 21-260 20-119 65-237 39-104 113-228 68-113 164-231h-191q-94 117-159 223-68 109-111 226-49 129-68 239-20 120-20 270z" unicode="&#x28;"/><glyph d="M336-426q104 127 166 231 74 123 112 228 45 119 66 237 20 117 20 260 0 141-20 258-20 119-66 238-39 104-112 227-61 104-166 232h192q86-106 160-223 68-108 111-222 45-119 65.5-239.5t20.5-268.5q0-150-20.5-270.5t-65.5-238.5q-43-117-111-226-66-106-160-223h-192z" unicode="&#x29;"/><glyph d="M248 1159l45 133 266-106-10 297h135l-12-295 264 102 45-131-283-74 185-249-119-72-150 258-155-256-119 72 188 247z" unicode="&#x2a;"/><glyph d="M117 608v146h424v428h145v-428h424v-146h-424v-428h-145v428h-424z" unicode="&#x2b;"/><glyph d="M258-362l170 661h264l-309-661h-125z" unicode="&#x2c;"/><glyph d="M334 465v160h561v-160h-561z" unicode="&#x2d;"/><glyph d="M496 0v299h235v-299h-235z" unicode="&#x2e;"/><glyph d="M115-20l821 1505h176l-815-1505h-182z" unicode="&#x2f;"/><glyph d="M125 676q0 203 37 338 35 131 102 213 63 78 157.5 110.5t194.5 32.5q96 0 191-33 89-31 154-110 70-86 104-213 39-143 39-338 0-199-39-328-41-137-104.5-215t-157.5-117q-90-37-192.5-36.5t-190.5 36.5q-96 39-156 117-68 86-102 213-37 133-37 330zM305 676q0-160 21-260 20-102 61-168t96-92q61-29 129-29t129 29q55 27 96.5 92t61.5 168q20 100 21 260 0 162-21 264-23 115-57 170-39 63-97 88-59 27-129 27-78 0-133-27-59-29-98-90-37-59-59-168-21-100-21-264z" unicode="&#x30;"/><glyph d="M147 973v147q82 0 146 17 82 20 133 47 61 31 110.5 73.5t73.5 92.5h166v-1205h354v-145h-972v145h438v1020q-18-39-67.5-75.5t-110.5-61.5q-66-27-133-41-66-14-138-14z" unicode="&#x31;"/><glyph d="M143 0v117q39 88 117 180 59 70 154 154 106 94 164 139 78 59 149 129 63 61 109 131 41 63 41 141 0 59-19 103-20 47-55 73-41 31-84 41-57 14-108.5 14.5t-100.5-16.5q-51-16-82-45-34-31-55-74-25-49-31-104l-182 18q8 72 41 144 31 68 86 117 59 53 137 79 82 29 186 29 106 0 189-24 88-27 143-70t88-117q33-72 33-158 0-94-43-174-45-82-111-151-78-82-149-137l-162-129q-77-65-141-129-66-66-97-136h723v-145h-940z" unicode="&#x32;"/><glyph d="M127 362l186 17q10-57 31-102.5t57-77.5q35-33 93-52 55-18 127-18 137 0 213 64 78 66 77 184 0 66-34 112-31 43-86 72-45 25-111 37-51 10-113 10h-100v158h96q51 0 107 12 57 12 100 39t76 72q29 41 28 108 0 109-65 166-70 59-199 60-119 0-192-62-72-59-84-172l-182 15q12 96 51 161 41 68 102 115 63 47 139 68 84 23 168 22 115 0 205-29 82-27 137.5-75.5t79.5-112.5q27-70 27-137 0-53-19-107-18-51-55-94-41-47-92-76-57-33-129-47v-4q84-10 143-39 61-31 105-74 41-41 63.5-96t22.5-108q0-86-33-164-31-74-92-123-63-51-149.5-77.5t-204.5-26.5q-133 0-220 32-89 34-147 86-59 53-88 123-31 75-39 141z" unicode="&#x33;"/><glyph d="M102 319v140l635 891h201v-889h186v-142h-186v-319h-180v319h-656zM256 461h502v692z" unicode="&#x34;"/><glyph d="M127 315l182 21q14-45 33-78 20-37 53-65 29-25 86-48 49-18 121-18 66 0 127 23 58 22 98 61 43 43 63.5 98.5t20.5 130.5q0 61-20 111-23 57-60 90-41 39-96 59-57 23-129 23-49 0-82-8-49-12-71-23-27-12-58-33-37-25-51-38h-174l45 729h803v-146h-635l-31-426q45 35 121 64 68 27 170 26 106 0 191-30 80-29 143-90 59-55 90-134 33-82 33-170 0-94-33-186-31-88-94-147-66-63-158-97-94-35-217-34-102 0-192 26-78 23-140 72-55 43-90 106-35 61-49 131z" unicode="&#x35;"/><glyph d="M152 641q0 174 34.5 313.5t98.5 229.5q63 92 159 139 94 47 211 47 76 0 136-14 61-14 114-49 49-33 90-88 40-55 62-136l-172-30q-27 90-90.5 131t-141.5 41q-72 0-135-35-53-31-100-103-45-70-66-165-23-102-22-228 49 92 139 139.5t203 47.5q94 0 174-31 82-31 135-88 55-59 86-137 29-74 29-179 0-106-29-186-31-88-88-147-66-68-141-99-88-35-197-34-121 0-215 47-90 45-154 133-59 82-90 207-30 122-30 274zM348 481q0-76 21-137 23-66 57-113 37-49 90-77.5t119-28.5q61 0 117 22 47 20 88 64 37 40 55 98.5t18 128.5q0 68-18 123-20 59-53 96-37 39-90 62-55 23-123 22-45 0-99-16-51-16-90-49-47-41-67-80-25-49-25-115z" unicode="&#x36;"/><glyph d="M158 1204v146h911v-140q-106-154-182-284-82-141-149.5-301t-102.5-310q-39-166-39-315h-188q0 156 41 315 41 164 106 312 68 152 156 299 98 164 184 278h-737z" unicode="&#x37;"/><glyph d="M133 377q0 74 23 127 25 59 63 100 39 43 90 68 51 27 105 35v4q-61 16-105 45-47 33-78 73-37 51-49 93-16 53-16 102 0 68 29 131 27 59 84 111 53 47 139 75.5t192 28.5q109 0 199-29 84-27 141-77 55-49 82-110.5t27-131.5q0-49-17-102-14-47-47-93-27-37-77-71-45-31-109-43v-4q59-8 112.5-37t90.5-68q40-43 61-98 20-53 21-127 0-82-29-158-27-70-86-127-53-51-150-84-89-31-215-30-127 0-215 30-90 31-149 84-61 55-88 127-29 76-29 156zM319 391q0-57 17-110 15-49 49-86 35-39 92-60 55-20 139-20t138 20q57 23 90 58 33 37 49 90 14 49 14 112 0 49-14 90-16 47-47 80-33 35-92 58-55 20-144 20-82 0-135-20-55-23-90-60-35-39-49-80-17-49-17-92zM350 1012q0-45 10-78 12-41 41-76 31-37 80-57 55-23 131-23 78 0 138 25 47 18 77 57 27 33 37 76 8 35 8 76t-14 88q-12 39-45 71-27 27-80 48-49 18-123 18-70 0-118-18-55-20-82-48-29-29-45-71-15-37-15-88z" unicode="&#x38;"/><glyph d="M141 911q0 102 31 189 29 80 92 143 59 59 148 94 84 33 198 33 237 0 357-166 121-168 120-502 0-172-34-311-31-127-103-227-63-90-159-137-98-47-213-47-78 0-148 16-55 14-115 51-47 31-88 92-35 53-57 135l172 27q27-88 88-133 57-43 150-43 72 0 135 35 57 33 102 98 39 57 66 166 27 106 26 225-23-49-57.5-84t-83.5-61q-51-27-100-39-61-14-109-14-94 0-174 34-76 33-131 95-53 59-84 145-29 80-29 186zM324 911q0-65 18-123 20-61 51-102 33-41 88-68 51-25 121-24 55 0 103 16 49 16 92 52 37 29 67 83 27 47 27 117 0 76-19 139-18 66-55 115-33 45-90 78-52 31-123 31-61 0-117-23-49-20-88-65t-55-99q-20-66-20-127z" unicode="&#x39;"/><glyph d="M496 0v299h235v-299h-235zM496 782v299h235v-299h-235z" unicode="&#x3a;"/><glyph d="M352-362l168 661h266l-311-661h-123zM496 782v299h235v-299h-235z" unicode="&#x3b;"/><glyph d="M352-362l168 661h266l-311-661h-123zM496 782v299h235v-299h-235z" unicode="&#x37e;"/><glyph d="M117 571v205l993 418v-154l-856-366 856-367v-153z" unicode="&#x3c;"/><glyph d="M117 344v148h993v-148h-993zM117 856v148h993v-148h-993z" unicode="&#x3d;"/><glyph d="M117 154v153l858 367-858 366v154l993-418v-205z" unicode="&#x3e;"/><glyph d="M94 961q12 89 49 165 35 74 101 129 63 53 149 84 90 31 201 31 108 0 197-24 88-25 151-70 61-43 96-115 35-70 35-160 0-68-18-120t-49-93q-29-37-72-73-27-23-80-64-23-16-44.5-32.5l-35.5-26.5q-47-35-72-64-35-39-51-75-20-47-20-97h-174q4 70 20 119 16 47 51 92 29 37 70 72 27 23 80 63l78 58q33 25 67 63 31 35 49 76 18 43 19 94 0 57-21 99-23 43-59 69-43 29-92 43-59 16-123 17-61 0-123-21-59-20-96-53-45-43-68-86-25-49-30-113zM449 0v201h194v-201h-194z" unicode="&#x3f;"/><glyph d="M43 514q0 209 43 387t123 307 196.5 203 266.5 74q129 0 229-60 96-57 162-159 63-100 94-232 33-141 33-278 0-150-21-264-23-125-59-205-41-88-96.5-135.5t-128.5-47.5q-35 0-58 9-29 10-45 26-20 20-30.5 47t-10.5 74v8 13q0 2 1 5t1 5v8h-6q-8-20-39-74-20-37-51-63-31-28-67-43-35-14-78-15-66 0-107 33t-69 86q-23 43-37 123-12 72-13 143 0 76 13 150 14 84 33 143 23 70 55 127 35 61 72 101 39 43 90 67 49 25 104 25 37 0 74-15 33-12 53-36 16-18 35-56 10-23 22-67h7l30 151h117l-98-508-17-82q-8-53-12-77.5t-8-65.5-4-51q0-55 14-71.5t35-16.5q39 0 71.5 39t57.5 112q23 66 35 174 12 101 12 222 0 141-25 239-29 113-77 197-47 80-125 131-70 47-170 47-121 0-213-68-96-70-157.5-182t-96.5-270q-33-152-33-334 0-160 29-276 31-126 86-215 55-88 137-140 80-49 182-49 49 0 111 14 53 12 94 33 53 27 86 49 35 25 78 64l71-88q-49-43-92-72-39-27-104-59-55-29-119-43-59-14-135-15-127 0-229 56-98 53-172 161-72 106-111 250t-39 330zM412 492q0-61 6-112.5t18.5-88.5 34.5-60q20-20 55-20 39 0 74 27 37 29 66 77 31 55 51 121 27 86 37 160 2 10 6 43 0 8 3 25.5t5 27.5q0 8 1 26.5t3 26.5q2 16 2 39 0 102-35 160-35 55-94 55-35 0-67-22-37-27-60-59-18-29-45-89-18-43-33-106-16-72-20-115-8-77-8-116z" unicode="&#x40;"/><glyph d="M0 0l510 1350h217l502-1350h-195l-137 383h-563l-137-383h-197zM385 530h463l-148 424q-8 25-26 76-8 20-13.5 40t-11.5 36q-12 35-20 61l-13 37q-2-8-12-39l-20-61-12.5-37.5t-10.5-36.5q-6-20-13-39.5l-13-36.5z" unicode="&#x41;"/><glyph d="M162 0v1350h411q106 0 209-21 92-18 155.5-57t98.5-103q33-59 33-147 0-53-16-107-16-51-49-90-35-41-84-71-41-27-117-43 84-8 149-37 68-29 111-72t65.5-100.5 22.5-120.5q0-109-41-176-43-72-113-117-71-46-166-68-90-20-196-20h-473zM352 154h266q84 0 136 10 61 12 108 40.5t71.5 74 24.5 118.5q0 63-24.5 106.5t-71.5 71.5q-53 31-112 43-66 12-146 13h-252v-477zM352 780h226q84 0 139 15 49 12 92 45 39 29 53 67 16 43 17 90 0 109-76 154t-228 45h-223v-416z" unicode="&#x42;"/><glyph d="M113 682q0 156 32 293 31 127 99 217 66 88 166 133 98 45 239 45 102 0 176-26.5t133-75.5q49-41 93-107 37-55 63-127l-168-63q-14 45-40.5 90t-61.5 78q-37 34-86 55-47 20-109 20-86 0-151.5-34.5t-104.5-100.5q-41-70-59-168-20-109-21-229 0-137 21-233 23-109 61-173 41-68 109-106 61-35 158-35 63 0 112 25 57 29 90 61 47 47 70 90 29 55 49 107l160-66q-23-57-70-137-39-66-98.5-119t-136.5-84q-82-33-179-32-137 0-243 51-102 49-170 141-66 90-101 221-32 125-32 289z" unicode="&#x43;"/><glyph d="M162 0v1350h311q160 0 279-39 123-41 204-119 84-80 127-207 41-121 41-297 0-172-39-297-40-129-116-215-80-90-187-131-117-45-250-45h-370zM352 156h162q211 0 315 133 104 132 105 399 0 133-29 232-27 94-86 155-61 63-141 90-90 29-205 29h-121v-1038z" unicode="&#x44;"/><glyph d="M162 0v1350h919v-156h-729v-424h670v-154h-670v-460h770v-156h-960z" unicode="&#x45;"/><glyph d="M195 0v1350h890v-156h-700v-496h676v-157h-676v-541h-190z" unicode="&#x46;"/><glyph d="M113 682q0 166 30 295 31 127 96.5 215t166.5 133q98 45 235 45 92 0 176-27 70-23 131-69 59-45 94-105 35-57 62-131l-172-55q-37 109-107 170-72 61-182 61-86 0-151-34-61-33-103-103-39-66-57-166-18-98-19-229 0-268 86-407.5t256-139.5q51 0 90 8 43 8 74 21 31 10 58 24 35 16 38 21v336h-292v160h479v-572q-12-8-84-51-43-27-107-49-59-23-125-37-72-16-147-16-133 0-233 53-98 53-164 145-66 94-97 221-32 138-32 283z" unicode="&#x47;"/><glyph d="M162 0v1350h190v-568h522v568h193v-1350h-193v623h-522v-623h-190z" unicode="&#x48;"/><glyph d="M203 0v156h315v1038h-315v156h821v-156h-315v-1038h315v-156h-821z" unicode="&#x49;"/><glyph d="M176 350l186 31q9-65 31-111 18-39 51-75 25-29 66-45 35-14 78-15 102 0 155.5 72t53.5 209v778h-312v156h500v-930q0-100-24-182-23-74-76-138-49-59-125-90-74-31-174-30-170 0-273 90-104 90-137 280z" unicode="&#x4a;"/><glyph d="M162 0v1350h190v-674l574 674h225l-506-574 582-776h-223l-488 639-164-170v-469h-190z" unicode="&#x4b;"/><glyph d="M238 0v1350h190v-1194h672v-156h-862z" unicode="&#x4c;"/><glyph d="M129 0v1350h238l184-490q6-12 20-61 16-49 23-76 8-29 24-94l27 90q10 37 23 76 14 49 20 63l186 492h226v-1350h-162v868 105q0 68 2 96 2 35 2 100l-33-108-30-94q-18-57-31-88l-164-439h-137l-166 439q-8 20-12 34-10 33-15 45l-16 48-16 49-37 114q0-23 1-48t1-52q0-14 1-47t1-51v-103-868h-160z" unicode="&#x4d;"/><glyph d="M162 0v1350h223l526-1139q-4 29-8 86-4 45-6 88-2 33-2 100v865h172v-1350h-231l-521 1130 9-88q2-25 6-81 2-29 2-84v-877h-170z" unicode="&#x4e;"/><glyph d="M102 682q0 176 33 301t101 215q65 86 159 129 96 43 219 43 246 0 379-174t133-514q0-170-34-305-31-121-103-219-66-90-160-133-100-45-217-45-125 0-223 47-92 45-160 137-66 90-96.5 219t-30.5 299zM303 682q0-272 80-409.5t231-137.5q166 0 238 139 74 141 74 408 0 268-80 401-80 131-232 131-158 0-233-131-78-133-78-401z" unicode="&#x4f;"/><glyph d="M162 0v1350h461q121 0 217-29 88-27 155-84 61-51 92-127 31-74 31-166 0-88-28-160-33-82-91-139-55-55-151-94-92-37-213-37h-283v-514h-190zM352 666h254q84 0 144 20 57 20 100 59 39 37 57 89 20 57 21 108 0 125-82 188-84 66-248 66h-246v-530z" unicode="&#x50;"/><glyph d="M102 682q0 176 33 301t101 215q65 86 159 129 96 43 219 43 246 0 379-174t133-514q0-139-26-266-25-117-74-203-49-88-119-141-68-53-162-76 39-123 109-182 66-57 168-58 18 0 59 4t56 9v-134q-45-10-84-16-45-6-95-6-86 0-149 25-57 23-113 73-49 45-84 117-33 63-61 156-117 12-197 63-86 55-139 139-59 96-86 215-27 121-27 281zM303 682q0-272 80-409.5t231-137.5q166 0 238 139 74 141 74 408 0 268-80 401-80 131-232 131-158 0-233-131-78-133-78-401z" unicode="&#x51;"/><glyph d="M162 0v1350h481q115 0 211-27 92-25 150-74 57-47 88-116 29-63 28-156 0-63-18-125-18-59-62-113-45-55-106.5-90t-157.5-51l402-598h-222l-364 575h-240v-575h-190zM352 725h281q86 0 139 20 63 25 92 54 34 34 49 80 16 49 17 94 0 223-305 223h-273v-471z" unicode="&#x52;"/><glyph d="M80 338l184 37q14-59 35-101 23-43 68-77 39-31 102-50 61-18 145-18 66 0 134 14 55 12 100 41 43 28 67 74 23 43 23 109 0 76-31 114-35 45-86 72-49 27-119 45l-135 35-35 9t-28.5 8-36.5 12q-61 18-98 32-47 18-88 47-45 31-72 64-25 31-47 88-16 43-17 117 0 100 35 164 39 72 101 112 63 43 147 64 82 20 186 20 119 0 199-20 82-20 137.5-61.5t89.5-102.5q35-63 56-139l-189-33q-12 51-33 90-23 41-57 67-33 25-86 41-45 14-117 15-76 0-135-17-47-12-86-45-31-25-47-67-14-37-14-84 0-63 26-99 29-39 72-61 53-29 105-41l131-35 110-28q51-14 106.5-37t96.5-49.5 78-69.5q35-41 53-96.5t18-126.5q0-88-30-158-31-72-94-123-70-55-162-82-102-29-232-28-236 0-364.5 92t-165.5 266z" unicode="&#x53;"/><glyph d="M76 1194v156h1075v-156h-442v-1194h-191v1194h-442z" unicode="&#x54;"/><glyph d="M141 471v879h193v-852q0-98 12-166 12-70 43-113t82-63q49-20 133-21 86 0 139 21 55 20 88 63 33 41 50 117 14 66 14 176v838h190v-861q0-131-28-233-25-90-90-158-59-61-150-90-92-29-213-28.5t-203 26.5q-84 27-143 86-61 61-88 152-29 96-29 227z" unicode="&#x55;"/><glyph d="M10 1350h201l319-904q4-10 10.5-28.5l11.5-33.5t9-30l27-92q14-47 26-94 12 45 27 92l27 90 30 96 320 904h201l-506-1350h-199z" unicode="&#x56;"/><glyph d="M0 1350h188l111-836q4-25 8-73t4-54q2-14 5-53t6-58q8-84 10-108 8 33 15 66.5l15 68.5q2 12 6.5 27.5t8.5 31.5q6 31 14 62l15 57q4 14 8 29.5t6 21.5l108 400h174l109-400q2-6 6-20t8-31q6-29 15-57 2-10 7-29.5t7-29.5l8-32t6-28l15.5-69.5t15.5-67.5q2 12 4 35l8 84q2 27 6.5 56.5t6.5 55.5q4 41 12 115l102 836h191l-211-1350h-207l-104 387q-2 8-5.5 19.5l-7.5 25.5q-6 27-14 55l-16 62q-8 31-15 61l-33 146-34-148q-6-31-15-61l-16-60q-4-14-14-55-2-12-6.5-23.5t-6.5-21.5l-104-387h-209z" unicode="&#x57;"/><glyph d="M37 0l475 705-434 645h205l331-514 332 514h205l-434-645 477-705h-207l-373 573-372-573h-205z" unicode="&#x58;"/><glyph d="M37 1350h205l372-613 373 613h205l-483-766v-584h-189v584z" unicode="&#x59;"/><glyph d="M74 0v143l817 1051h-746v156h963v-140l-817-1054h864v-156h-1081z" unicode="&#x5a;"/><glyph d="M410-426v1911h546v-139h-366v-1633h366v-139h-546z" unicode="&#x5b;"/><glyph d="M115 1485h178l821-1505h-182z" unicode="&#x5c;"/><glyph d="M270-287h367v1633h-367v139h547v-1911h-547v139z" unicode="&#x5d;"/><glyph d="M133 442l379 908h203l379-908h-154l-330 803-325-803h-152z" unicode="&#x5e;"/><glyph d="M-4-125h1237v-94h-1237v94z" unicode="&#x5f;"/><glyph d="M401 1432v28h197l227-239v-21h-123z" unicode="&#x60;"/><glyph d="M127 301q0 106 41 176 43 72 102 109 61 37 146 53 88 16 166 16l235 4v60q0 68-12 115t-41 75q-33 33-70 43-43 12-98 13-51 0-90-7-35-6-70-28-29-18-47-53t-24-84l-189 18q9 65 37 117 27 51 78 92 49 41 125 61 74 20 182 21 197 0 301-94 100-92 100-271v-465q0-80 22.5-120.5t80.5-40.5q18 0 28 2 4 2 14.5 4t14.5 2v-113q-34-9-67-12-45-4-70-4-45 0-88 14-37 12-60 41-23 31-34 68-14 45-17 94h-6q-27-49-61-94-29-37-78-72-41-29-100-45-61-16-132-16-158 0-237 86-82 88-82 235zM317 299q0-80 45.5-131t129.5-51q80 0 145 33 63 31 100 77 41 49 62 107 18 49 18 110v91l-188-5q-37 0-111-8-53-6-100-33-49-29-74-69-27-45-27-121z" unicode="&#x61;"/><glyph d="M178 0q0 2 1 12.5t1 18.5q0 6 1 23.5t1 27.5 1 31.5 1 33.5v76 1262h181v-424-57q0-10-1.5-28t-1.5-24q0-8-1-25.5t-1-23.5h5q51 111 133 154 88 47 200 47 195 0 293-139 98-138 99-418 0-287-101-426-100-141-291-141-115 0-200 43-84 41-133 141h-3q0-8-1-25.5t-1-28-1-27.5-1-24q0-8-1-21t-1-18q0-6-3-16l-1-4h-174zM365 524q0-123 20-198 23-84 57-127 39-47 88-66 57-20 117-20 61 0 113 22 47 20 80 76 33 57 47 131 16 88 16 199 0 119-14 192-14 76-47 131-29 49-78 76-47 25-115 25-63 0-119-23-51-20-88-74-37-51-57-135-20-82-20-209z" unicode="&#x62;"/><glyph d="M129 543q0 163 43 270 43 106 115 172 68 61 159 90 86 27 187 27 96 0 174-25 74-25 133-69 55-43 90-103 35-61 47-127l-190-12q-14 90-80 143-63 51-182 52-90 0-146-27-57-27-94-80-35-49-51-131-14-72-15-176 0-106 15-180 16-82 51-136 39-57 94-84 61-29 144-28 109 0 180 53 70 51 88 162l188-12q-9-68-43-129-37-66-90-109-66-51-135-76-82-29-180-28-135 0-232 43-100 45-155 118-58 77-86 178-29 105-29 224z" unicode="&#x63;"/><glyph d="M137 532q0 565 393 566 120 0 203-43 78-41 129-142h2v27 45 49q0 8-1 18.5t-1 12.5v420h180v-1262q0-14 1-38.5t1-37.5v-65q0-10 1.5-27.5t1.5-23.5q0-8 1-18.5t1-12.5h-172q0 10-3 23-4 25-4 43 0 8-1 25.5t-1 27.5-1 28.5-1 26.5h-4q-51-106-131-154-82-47-201-47-201 0-297 139t-96 420zM324 539q0-119 14-193 16-84 45-133 31-51 80-75.5t115-24.5q70 0 122 24 51 25 88 76t56 137q18 84 18 205 0 113-18.5 192.5t-53 127-90.5 69.5q-49 20-120 21-61 0-113-23-49-22-80-74-33-55-47-133-16-87-16-196z" unicode="&#x64;"/><glyph d="M133 549q0 158 39 262 39 106 107 170 66 63 155.5 92t181.5 29q137 0 222-41 90-43 147-119 61-80 84-180 25-106 25-236v-22h-772q0-80 20-158 18-71 55-123 35-51 95-80 57-29 131-28 57 0 102 12t84 35q35 20 61.5 53t36.5 66l158-45q-12-39-47-91-27-41-86-82-47-33-129-59-78-25-180-24-113 0-205 36.5t-156 106.5q-61 68-96 178-33 105-33 248zM324 641h583q-10 96-32.5 157.5t-65.5 100.5-86 53q-53 16-104.5 16.5t-96.5-14.5q-53-16-94-51t-72-100q-28-62-32-162z" unicode="&#x65;"/><glyph d="M137 940v141h262v27q0 98 23 172 20 68 74 117 47 43 129 65 84 23 192 23 8 0 31.5-1t38.5-1q27 0 80-4l38.5-5.5t36.5-3.5l58-8v-143q-6 2-26.5 3t-29.5 1l-75 6q-53 4-74 4-14 0-32.5 1t-22.5 1q-59 0-115-10-51-10-82-37-33-29-47-74-16-49-16-122v-11h491v-141h-491v-940h-181v940h-262z" unicode="&#x66;"/><glyph d="M143 549q0 137 20.5 233.5t69.5 171.5q47 72 123 109 78 37 187 37 113 0 196.5-53.5t128.5-149.5h2q0 8 1 26.5t1 29 1 31 1 28.5q0 18 5 47 0 6 1 11t2 8l1 3h172q0-2-1-12t-1-18q0-6-1-23.5t-1-28-1-32-1-33.5v-76-825q0-229-107-342-109-115-328-115-90 0-157 18-72 18-119 56-51 39-80 84-31 49-43 108l184 27q18-78 74-117 57-41 148-41 55 0 102 19 45 18 78 53t51 98q16 55 16 146v194h-2q-23-47-47-78-39-47-71-67-49-31-97-47-49-16-127-17-106 0-174 33-74 35-119 100-47 68-67 168-21 97-21 236zM330 551q0-123 14-195 16-78 47-125 33-51 80-67 49-18 115-19 53 0 102 21 53 23 92 70 37 47 64 126 25 76 24 189 0 119-22 192-25 82-64 129.5t-90 70-104 22.5q-66 0-117-23-49-20-80-72-33-53-47-126.5t-14-192.5z" unicode="&#x67;"/><glyph d="M184 0v1485h183v-391q0-35-5-101-2-27-4-51t-2-45h4q27 49 55.5 84t73.5 66q35 25 93 40 49 14 116 15 82 0 150-23 61-20 108-67 45-45 70-117 23-66 23-174v-721h-181v694q0 78-16 133-14 49-47 82-29 29-70 41-39 12-88 13-55 0-110-23-45-18-88-66-40-43-62-104-23-63-22-143v-627h-181z" unicode="&#x68;"/><glyph d="M143 0v141h422v799h-319v141h499v-940h379v-141h-981zM545 1292v193h200v-193h-200z" unicode="&#x69;"/><glyph d="M117-242q18-6 53-12 12-2 33.5-5t32.5-5q27-4 75-8 53-4 78-4 59 0 105 14 51 16 86 45 31 27 55 78 20 43 20 114v965h-405v141h586v-1110q0-113-35-184-37-78-94.5-123t-137.5-67.5-163-22.5q-29 0-82 4-35 2-80 10-25 4-70 13-27 4-57 16v141zM637 1292v193h199v-193h-199z" unicode="&#x6a;"/><glyph d="M236 0v1485h180v-928l475 524h211l-438-465 460-616h-211l-364 500-133-99v-401h-180z" unicode="&#x6b;"/><glyph d="M133 0v141h422v1200h-289v144h469v-1344h381v-141h-983z" unicode="&#x6c;"/><glyph d="M98 1081h150l1-8q1-8 1-16 0-6 1-21.5t1-26 1-28.5 1-27v-47h2q10 33 31 74 16 35 43 63 23 25 61 43 31 14 80 15 92 0 133-47 43-49 62-150h2q23 55 39 84 18 33 51 61.5t63 39.5q37 12 82 12 59 0 105-23 43-22 67.5-67.5t36.5-116.5q12-72 12-174v-721h-168v686q0 80-6 131-6 43-20 86-12 35-35 47.5t-53 12.5q-63 0-105-84-39-80-39-252v-627h-168v686q0 80-6 131-6 52-18 86-12 35-35 47-20 12-53 13-35 0-60-25-27-27-45-72-20-49-28-112-10-72-11-148v-606h-170v852 70q0 12-1 36.5t-1 34.5q0 12-1 30.5t-1 27.5q0 10-1 20z" unicode="&#x6d;"/><glyph d="M178 1081h170l1-9q1-9 1-17 0-6 2-23.5t2-27.5q0-8 1-28t1-30v-49h4q31 57 56 84 37 41 76 66 37 23 96 40 49 14 119 15 80 0 147-23 63-20 107-67 45-47 65-117 23-74 23-174v-721h-181v694q0 78-16 133-14 49-47 82-29 29-70 41-39 12-88 13-55 0-110-23-45-18-88-66-40-43-62-104-23-63-22-143v-627h-181v852 70q0 12-1 36.5t-1 34.5q0 12-1 30.5t-1 27.5q0 10-1 20z" unicode="&#x6e;"/><glyph d="M129 543q0 274 127 418 125 141 358 141 244 0 365-139 119-137 119-420 0-139-35-248t-96-176q-65-71-154-105-92-35-205-34-104 0-196 34-90 35-152 105-63 74-96 174-35 109-35 250zM319 543q0-133 23-209 25-84 63.5-131t92.5-70q49-20 108.5-20t120.5 20q57 18 96 67.5t62 133.5q23 86 22 209 0 127-20 207-23 86-60 131-43 51-92 69-52 18-117 19-68 0-120-21-55-20-95-69-41-49-61-131-23-86-23-205z" unicode="&#x6f;"/><glyph d="M178 1081h176l1-3q1-3 1-7v-10t2-21.5 2-23.5 1-26.5 1-29 1.5-30 1.5-27.5h4q27 55 55 90 33 39 72 64 33 20 90 35 49 12 112 12 113 0 185-39 74-41 121-115 43-70 65-176 20-100 20.5-227t-20.5-228q-23-113-65-180-45-74-121-116-74-43-185-43-49 0-104 10-45 8-94 33-37 18-76 57-37 37-57 84h-5v-17q0-4 1.5-17t1.5-21v-54q0-10 1-28.5t1-28.5v-424h-183v1284 78q0 12-1 33.5t-1 32-1 28-1 23.5q0 8-1 17t-1 11zM367 524q0-115 18-194.5t53-126.5 90-70q49-20 121-20 70 0 121 28 49 27 80 84 29 51 41 135 12 80 12 187 0 115-10 178-12 80-43 131-33 57-78 82-47 27-121 27-58 0-110.5-18.5t-91.5-67.5q-37-47-60-134-22-90-22-221z" unicode="&#x70;"/><glyph d="M137 532q0 283 98.5 424.5t292.5 141.5q74 0 117-11 49-12 92-34 35-18 70-58 23-25 53-82h2q0 8 1 25.5t1 28 2 28 2 25.5q0 18 4 43 2 12 2 20h177q0-2-1-11t-1-17q0-6-1-24.5t-1-31.5q0-10-1.5-36.5t-1.5-44.5v-117-1227h-182v440q0 8 1 26.5t1 29.5v55q0 16 1 29.5t1 27.5h-2q-23-47-55-90-27-35-72-65-37-25-92-39-57-14-115-15-203 0-297 142-96 143-96 417zM324 539q0-113 14-187 16-84 45-133 31-53 78-79.5t117-26.5q53 0 110 20 49 18 90 68 40 49 62 135 23 90 22.5 219t-18.5 197q-23 84-57.5 127t-90.5 65q-49 20-116.5 20.5t-116.5-24.5-80-78q-29-49-45-133-14-73-14-190z" unicode="&#x71;"/><glyph d="M242 1081h172q0-4 6-23.5t8-31.5q2-8 7-29.5t7-33.5l13-68q2-12 4-35.5t2-28.5h6q33 74 57 113 33 51 74 84 51 39 100 55 58 18 142 19 72 0 108-4 47-4 96-13v-167q-33 6-98 14-53 6-112 6-82 0-152-35-66-33-113-92t-71-137q-25-77-25-166v-508h-178v700q0 57-6 115-6 68-15 109-10 61-18 94-2 10-7 32.5t-7 30.5z" unicode="&#x72;"/><glyph d="M168 248l158 31q12-53 38.5-86t63.5-52q31-16 86-22 33-4 107-4 66 0 108 8 51 10 84 29 37 23 57 53 20 33 21 80 0 49-24.5 79.5t-69.5 53.5q-35 16-105 35-35 8-69.5 17l-63.5 17q-115 33-127 37-74 25-113 51-47 33-79 84-29 45-29 127 0 150 104 230 109 84 308 84 84 0 147-15 68-16 125-47 51-29 90-80 33-43 49-118l-162-21q-6 45-28 74-20 27-57 43t-76 22q-43 6-88 7-244 0-244-152 0-47 20-74 23-29 62-47 51-25 92-33l119-30q68-16 133-37 72-23 125-55 57-35 94-90.5t37-137.5q0-76-31-137t-86-104q-57-45-137-66-86-23-186-22-80 0-170 14-66 10-132 45-55 29-96 82-37 47-55 127z" unicode="&#x73;"/><glyph d="M190 940v141h170l58 283h121v-283h432v-141h-432v-651q0-84 41-119 43-37 141-37 25 0 82 4 53 4 82 8 10 2 35.5 5.5t37.5 5.5q37 6 60 12v-137q-6-2-25.5-6.5t-31.5-8.5q-39-10-80-16-16-2-48-5t-47-5q-53-6-104-6-162 0-244 69-80 68-80 215v672h-168z" unicode="&#x74;"/><glyph d="M184 360v721h181v-686q0-80 12-131 14-57 37-86 27-33 69-45 49-14 107-14 59 0 115 22 49 20 88 66 37 43 55 104 20 68 20 144v626h181v-850-71q0-12 1-37t1-35q0-12 1-30.5t1-26.5q0-10 1-21l1-10h-170l-1 9q-1 9-1 18 0 6-1 23.5t-1 27.5q0 8-1 27.5t-1 29.5-1 26.5-1 22.5h-3q-23-43-57-84-31-37-72-65-33-23-94-41-49-14-123-14-88 0-155 22-63 20-106.5 67.5t-61.5 118.5q-21 82-21 172z" unicode="&#x75;"/><glyph d="M70 1081h200l269-702 5-15.5t6-20.5 5-19q4-16 10-33t10-33l18.5-65.5 14.5-51.5q2 6 5 19.5t10 32.5l20 65 21 64 18 55 276 704h201l-444-1081h-213z" unicode="&#x76;"/><glyph d="M20 1081h179l94-606q2-25 8-67 2-16 5-46t5-45l11-94q4-61 4-73l20 86q4 14 6 24t6 21.5 8.5 26l10.5 33.5t6 21l135 424h193l131-424q4-14 14-55 8-27 18-71 14-49 23-86 0 43 2 73 2 35 10 94l13 91 5 36.5t5 30.5l100 606h176l-190-1081h-205l-141 471-19 61q-14 47-18 66-6 18-21 76-12-49-20-74-14-53-18.5-67.5l-11.5-38t-9-27.5l-147-467h-203z" unicode="&#x77;"/><glyph d="M94 0l416 555-397 526h198l299-419 299 419h201l-397-524 420-557h-201l-322 444-321-444h-195z" unicode="&#x78;"/><glyph d="M66 1081h192l264-641q18-51 27-67l31-78 26-70 15-39q4 14 14 41l27 68q25 63 30 78l14.5 36.5 12.5 30.5 252 641h190l-456-1081q-37-98-76-176t-90-135q-47-53-108.5-84t-137.5-31q-45 0-64 2-23 2-61 10v135q25-4 43-4 8 0 21.5-1t19.5-1q78 0 149 60 68 55 117 186l19 49z" unicode="&#x79;"/><glyph d="M147 0v137l680 805h-641v139h844v-137l-682-805h719v-139h-920z" unicode="&#x7a;"/><glyph d="M227 461v137q55 4 101 14 45 12 88 41 37 27 63 72 23 39 23 104v353q0 68 22 125 23 59 60 96t94 59.5 119 22.5h264v-139h-213q-41 0-78-11-25-6-53-35-20-20-31-59-8-33-8-90v-346q0-61-21-105-22-46-55-79-41-41-74-58-43-23-82-31v-2q33-6 84-32 33-16 74-58 31-31 53-80 20-43 21-104v-346q0-111 39-152 41-45 131-45h213v-139h-264q-61 0-119 23-53 20-94 61-37 37-60 96-23 57-22 123v352q0 68-23 107-25 43-63 70-43 29-88 40-46 11-101 15z" unicode="&#x7b;"/><glyph d="M530-426v1911h166v-1911h-166z" unicode="&#x7c;"/><glyph d="M168-287h213q90 0 131 45t41 152v346q0 66 18 104 23 49 54 80 39 39 73 58 45 25 84 32v2q-43 10-82 31-35 18-73 58-31 31-54 79-20 43-20 105v346q0 49-10 90-10 39-31 59-27 27-55 35-37 10-76 11h-213v139h264q61 0 119-23 53-20 92-59t62-96q20-53 20-125v-353q0-61 25-104 27-49 61-72 41-29 90-41 45-10 100-14v-137q-55-4-100-15-49-12-90-40-35-25-61-70-25-43-25-107v-352q0-70-20-123-23-57-62-96-41-41-92-61-57-23-119-23h-264v139z" unicode="&#x7d;"/><glyph d="M109 580v143q55 41 114 61 68 23 148 23 40 0 80-6 27-4 79-17 27-6 76-22 18-6 37-13.5t37-13.5l45-14q29-10 51-16 31-8 51-11 33-4 50-4 68 0 129 25 63 25 114 67v-149q-31-22-61-37-35-16-60-25-41-12-65-14-45-4-74-4-63 0-141 22-33 10-146 48-127 45-217 45-37 0-71-6-37-6-62-17-20-8-57-29-34-18-57-36z" unicode="&#x7e;"/><glyph unicode="&#xa0;"/><glyph d="M133 655q0 117 29 215 27 90 86 164 55 68 137 111 76 39 184 49v184h129v-184q86-6 152-33 61-25 115-71 49-43 79.5-98.5t42.5-119.5l-184-14q-18 90-81.5 145.5t-188.5 55.5q-156 0-236-101-82-104-82-290 0-197 84-299 82-100 236-101 59 0 102 15 49 16 82 40.5t60 67.5q23 39 32 94l183-12q-8-59-37-119-25-53-80-104-51-49-118.5-78t-160.5-39v-194h-129v194q-109 8-190 51-84 43-137 109-53 63-82 162-27 87-27 200z" unicode="&#xa2;"/><glyph d="M55 0v154q37 18 80 47 39 25 62 57 23 31 39 86t16 127v141h-186v142h186v221q0 90 24 164 23 70 78 125 53 53 131 79.5t189 26.5q78 0 137-14 63-14 113-43 45-25 86-74 39-45 55-98-2-2-6-4t-21-7q-4-2-11-5t-15-5-16.5-5-16.5-5l-37.5-11t-50.5-16q-20 61-81.5 94t-135.5 33q-123 0-182-57-61-59-62-182v-217h410v-142h-410v-139q0-57-6-106-6-41-27-88-18-39-47-68-33-33-74-53h601q59 0 86 26 29 29 41 80l167-24q-9-43-24-86-14-41-43-76-31-37-68-58-39-20-98-20h-883z" unicode="&#xa3;"/><glyph d="M51 1350h201l360-619 365 619h199l-412-670h321v-143h-383v-138h383v-143h-383v-256h-178v256h-381v143h381l2 138h-383v143h320z" unicode="&#xa5;"/><glyph d="M31 762q0 186 47 323 47 135 125 224 84 92 184 133 108 43 227 43 120 0 228-43 100-41 184-133 78-88 125-224 45-133 45-323.5t-45-323.5q-47-139-125-225-84-92-184-133-102-41-227.5-41t-227.5 41q-100 41-184 133-78 86-125 225-47 138-47 324zM127 762q0-178 37-289 39-117 104-194 63-76 156-111 96-37 190.5-37t190.5 37q88 33 156 111 68 76 106 194 39 117 39 289 0 168-39 285-39 119-106.5 194.5t-155.5 112.5q-84 35-190.5 35t-190.5-35q-94-39-156-113-66-78-104-194-37-111-37-285zM268 764q0 94 23 174 23 84 63 135 39 51 109 84 66 31 151 31 68 0 117-19 53-20 86-46.5t60-67.5q29-41 41-76l-113-35q-8 23-27 51-16 25-39 45-20 18-53 31-27 10-70 10-53 0-98-22-43-20-69-64-27-41-39.5-100t-12.5-131q0-76 14.5-133.5t43.5-102.5q29-43 69-67 43-25 99-25 37 0 71 15 25 10 56 36 23 20 39 49t28 58l117-37q-12-29-45-82-25-39-64-72-41-35-86-51-49-18-116-18-90 0-158 31-63 29-108.5 90t-65.5 135q-23 84-23 174z" unicode="&#xa9;"/><glyph d="M334 465v160h561v-160h-561z" unicode="&#xad;"/><glyph d="M31 762q0 186 47 323 47 135 125 224 84 92 184 133 108 43 227 43 120 0 228-43 100-41 184-133 78-88 125-224 45-133 45-323.5t-45-323.5q-47-139-125-225-84-92-184-133-102-41-227.5-41t-227.5 41q-100 41-184 133-78 86-125 225-47 138-47 324zM127 762q0-178 37-289 39-117 104-194 63-76 156-111 96-37 190.5-37t190.5 37q88 33 156 111 68 76 106 194 39 117 39 289 0 168-39 285-39 119-106.5 194.5t-155.5 112.5q-84 35-190.5 35t-190.5-35q-94-39-156-113-66-78-104-194-37-111-37-285zM328 342v832h307q141 0 217-63.5t76-172.5q0-104-51-164-55-63-138-82l222-350h-146l-199 338h-161v-338h-127zM455 774h182q80 0 123 43 41 41 41 119 0 68-47 104-43 35-129 35h-170v-301z" unicode="&#xae;"/><glyph d="M401 1200v21l228 239h196v-28l-299-232h-125z" unicode="&#xb4;"/><glyph horiz-adv-x="741" unicode="&#x2000;"/><glyph horiz-adv-x="1482" unicode="&#x2001;"/><glyph horiz-adv-x="741" unicode="&#x2002;"/><glyph horiz-adv-x="1482" unicode="&#x2003;"/><glyph horiz-adv-x="493" unicode="&#x2004;"/><glyph horiz-adv-x="370" unicode="&#x2005;"/><glyph horiz-adv-x="245" unicode="&#x2006;"/><glyph horiz-adv-x="245" unicode="&#x2007;"/><glyph horiz-adv-x="184" unicode="&#x2008;"/><glyph horiz-adv-x="294" unicode="&#x2009;"/><glyph horiz-adv-x="81" unicode="&#x200a;"/><glyph d="M334 465v160h561v-160h-561z" unicode="&#x2010;"/><glyph d="M334 465v160h561v-160h-561z" unicode="&#x2011;"/><glyph d="M334 465v160h561v-160h-561z" unicode="&#x2012;"/><glyph d="M170 451v137h889v-137h-889z" unicode="&#x2013;"/><glyph d="M-10 451v137h1247v-137h-1247z" unicode="&#x2014;"/><glyph d="M397 862l312 623h122l-169-623h-265z" unicode="&#x2018;"/><glyph d="M399 862l168 623h267l-312-623h-123z" unicode="&#x2019;"/><glyph d="M176 862l311 623h123l-168-623h-266zM616 862l312 623h123l-170-623h-265z" unicode="&#x201c;"/><glyph d="M178 862l168 623h266l-311-623h-123zM616 862l170 623h265l-312-623h-123z" unicode="&#x201d;"/><glyph d="M336 682q0 55 22 106 25 55 58 88t88 58q51 23 106 22 53 0 109-22 51-20 90-57 35-33 59-89 23-51 23-106 0-53-23-109-23-57-59-90-43-41-90-59-55-23-109-23-55 0-106 22.5t-88 59.5q-35 35-57.5 90.5t-22.5 108.5z" unicode="&#x2022;"/><glyph d="M117 0v219h176v-219h-176zM528 0v219h172v-219h-172zM938 0v219h174v-219h-174z" unicode="&#x2026;"/><glyph horiz-adv-x="294" unicode="&#x202f;"/><glyph horiz-adv-x="370" unicode="&#x205f;"/><glyph d="M90 461v143h121q-4 29-4 39v37 43q0 10 4 35h-121v141h129q29 233 156 352 129 119 354 119 57 0 107-6 45-6 96-23 61-20 90-34 39-18 86-54l-82-139q-59 45-127 72-70 29-156 28-74 0-129-14-59-16-98-49-45-39-67-96-25-61-37-158h460v-139h-475v-37q0-8-1-20.5t-1-20.5q0-35 4-76h473v-141h-458q10-86 28-139 23-66 60-105 39-43 96-63 55-20 139-21 55 0 94 8 47 10 82 25 41 16 70 33 12 6 34.5 20.5t29.5 18.5l75-136q-57-37-86-51-53-27-92-39-53-16-100-24-61-10-117-10-117 0-209 34-88 35-151 97-57 57-97 151-37 88-49 199h-131z" unicode="&#x20ac;"/><glyph d="M4 1391v92h457v-92h-174v-549h-113v549h-170zM518 842v641h158l182-465 4-8 4-13q4-8 6-14 27 70 29 76t6 14 6 14q6 14 9 25 2 4 5 11t3 10l4 8 137 342h154v-641h-107v352 160l-6-19q-2-8-4-14-2-2-2-6t-2-6l-191-467h-90l-135 342-10 30q-4 10-10 26.5t-13 33.5q-27 66-30 80v-43-469h-107z" unicode="&#x2122;"/><glyph d="M0 1080h1080v-1080h-1080v1080z" horiz-adv-x="1080" unicode="&#xe000;"/><glyph d="M84 950v131h152v123q0 59 12 109 14 59 39 88 33 39 82 59 55 23 131 23 23 0 67-4 41-4 60-9v-137q-25 4-39.5 6t-40.5 2q-41 0-66-12-27-12-39-31-14-20-20-50.5t-6-67.5v-99h211v-131h-211v-950h-180v950h-152zM881 0v1081h180v-1081h-180zM881 1313v172h180v-172h-180z" unicode="&#xf001;"/><glyph d="M84 950v131h152v123q0 59 12 109 14 59 39 88 33 39 82 59 55 23 131 23 23 0 67-4 41-4 60-9v-137q-25 4-39.5 6t-40.5 2q-41 0-66-12-27-12-39-31-14-20-20-50.5t-6-67.5v-99h211v-131h-211v-950h-180v950h-152zM881 0v1081h180v-1081h-180zM881 1313v172h180v-172h-180z" unicode="&#xfb01;"/><glyph d="M84 950v131h152v123q0 59 12 109 14 59 39 88 33 39 82 59 55 23 131 23 23 0 67-4 41-4 60-9v-137q-25 4-39.5 6t-40.5 2q-41 0-66-12-27-12-39-31-14-20-20-50.5t-6-67.5v-99h211v-131h-211v-950h-180v950h-152zM881 0v1485h180v-1485h-180z" unicode="&#xf002;"/><glyph d="M84 950v131h152v123q0 59 12 109 14 59 39 88 33 39 82 59 55 23 131 23 23 0 67-4 41-4 60-9v-137q-25 4-39.5 6t-40.5 2q-41 0-66-12-27-12-39-31-14-20-20-50.5t-6-67.5v-99h211v-131h-211v-950h-180v950h-152zM881 0v1485h180v-1485h-180z" unicode="&#xfb02;"/><glyph d="M2601 0v141h422v799h-319v141h499v-940h379v-141h-981zM3003 1292v193h200v-193h-200zM1366 940v141h262v27q0 98 23 172 20 68 74 117 47 43 129 65 84 23 192 23 8 0 31.5-1t38.5-1q27 0 80-4l38.5-5.5t36.5-3.5l58-8v-143q-6 2-26.5 3t-29.5 1l-75 6q-53 4-74 4-14 0-32.5 1t-22.5 1q-59 0-115-10-51-10-82-37-33-29-47-74-16-49-16-122v-11h491v-141h-491v-940h-181v940h-262zM137 940v141h262v27q0 98 23 172 20 68 74 117 47 43 129 65 84 23 192 23 8 0 31.5-1t38.5-1q27 0 80-4l38.5-5.5t36.5-3.5l58-8v-143q-6 2-26.5 3t-29.5 1l-75 6q-53 4-74 4-14 0-32.5 1t-22.5 1q-59 0-115-10-51-10-82-37-33-29-47-74-16-49-16-122v-11h491v-141h-491v-940h-181v940h-262z" horiz-adv-x="3686" unicode="&#xfb03;"/><glyph d="M2591 0v141h422v1200h-289v144h469v-1344h381v-141h-983zM1366 940v141h262v27q0 98 23 172 20 68 74 117 47 43 129 65 84 23 192 23 8 0 31.5-1t38.5-1q27 0 80-4l38.5-5.5t36.5-3.5l58-8v-143q-6 2-26.5 3t-29.5 1l-75 6q-53 4-74 4-14 0-32.5 1t-22.5 1q-59 0-115-10-51-10-82-37-33-29-47-74-16-49-16-122v-11h491v-141h-491v-940h-181v940h-262zM137 940v141h262v27q0 98 23 172 20 68 74 117 47 43 129 65 84 23 192 23 8 0 31.5-1t38.5-1q27 0 80-4l38.5-5.5t36.5-3.5l58-8v-143q-6 2-26.5 3t-29.5 1l-75 6q-53 4-74 4-14 0-32.5 1t-22.5 1q-59 0-115-10-51-10-82-37-33-29-47-74-16-49-16-122v-11h491v-141h-491v-940h-181v940h-262z" horiz-adv-x="3686" unicode="&#xfb04;"/></font>
</defs>
</svg>
