<svg xmlns="http://www.w3.org/2000/svg"><defs><font horiz-adv-x="1055"><font-face ascent="1638" descent="-410" units-per-em="2048"/><missing-glyph horiz-adv-x="561"/><glyph horiz-adv-x="0"/><glyph horiz-adv-x="199" unicode="&#xd;"/><glyph horiz-adv-x="561" unicode="&#x20;"/><glyph horiz-adv-x="561" unicode="&#x09;"/><glyph horiz-adv-x="561" unicode="&#xa0;"/><glyph d="M332 403h-86l-10 1031h106zM291-18q-34 0-57 23.5t-23 57.5q0 35 23 57.5t57 22.5 58-22.5 24-57.5q0-34-24-57.5t-58-23.5z" horiz-adv-x="582" unicode="&#x21;"/><glyph d="M511 985h-86v449h86v-449zM263 985h-86v449h86v-449z" horiz-adv-x="686" unicode="&#x22;"/><glyph d="M1128 946h-272l-76-346h285l-18-78h-283l-86-399h-80l86 399h-268l-86-399h-80l86 399h-283l19 78h280l76 346h-293l19 78h290l88 410h80l-88-410h269l88 410h80l-89-410h275zM508 946l-76-346h268l76 346h-268z" horiz-adv-x="1237" unicode="&#x23;"/><glyph d="M567 4v-213h-78v209q-188 0-327 80v102q152-98 327-98v598q-197 113-262 194.5t-65 194.5q0 136 88 237t239 124v182h78v-180q152 0 260-43v-103q-103 60-260 60v-607q184-101 255-185.5t71-199.5q0-140-85.5-235t-240.5-117zM489 1346q-107-17-169-88t-62-175q0-88 46-152.5t185-144.5v560zM567 635v-549q114 20 172 87.5t58 164.5q0 92-48.5 156t-181.5 141z" unicode="&#x24;"/><glyph d="M414 729q-154 0-243 101t-89 262q0 175 94.5 272.5t247.5 97.5q150 0 238-97t88-271q0-156-91.5-260.5t-244.5-104.5zM422 1380q-115 0-181.5-76.5t-66.5-213.5q0-129 64.5-205t177.5-76q114 0 178.5 78t64.5 209q0 141-64 212.5t-173 71.5zM416-33h-99l863 1465h96zM1198-25q-153 0-242.5 101t-89.5 262q0 177 96 274t246 97 238-98 88-271q0-156-91.5-260.5t-244.5-104.5zM1206 627q-114 0-181-78t-67-213q0-129 64.5-205t177.5-76q115 0 179.5 77.5t64.5 209.5q0 141-64 213t-174 72z" horiz-adv-x="1606" unicode="&#x25;"/><glyph d="M1260 0l-193 188q-201-213-479-213-211 0-329 108.5t-118 276.5q0 276 332 424-162 187-162 342 0 139 98.5 235.5t254.5 96.5q143 0 225-81.5t82-207.5q0-137-83-233.5t-261-177.5q150-159 440-434 125 186 133 434h96q-7-267-166-498 171-168 273-262zM563 823q174 77 242.5 154t68.5 180q0 99-63 158t-156 59q-113 0-180-72.5t-67-177.5q0-128 155-301zM1006 250q-332 321-469 469-299-130-299-352 0-135 95.5-221.5t262.5-86.5q229 0 410 191z" horiz-adv-x="1427" unicode="&#x26;"/><glyph d="M263 985h-86v449h86v-449z" horiz-adv-x="438" unicode="&#x27;"/><glyph d="M453-326q-303 354-303 871 0 540 307 889h98q-313-360-313-887 0-497 309-873h-98z" horiz-adv-x="578" unicode="&#x28;"/><glyph d="M125-326h-98q309 376 309 873 0 527-313 887h98q307-351 307-889 0-519-303-871z" horiz-adv-x="578" unicode="&#x29;"/><glyph d="M469 1051l199-267-76-51-174 277-178-277-74 51 199 267-295 75 26 86 289-102-16 324h94l-14-324 286 102 27-86z" horiz-adv-x="831" unicode="&#x2a;"/><glyph d="M709 555v-412h-84v412h-412v84h412v412h84v-412h411v-84h-411z" horiz-adv-x="1331" unicode="&#x2b;"/><glyph d="M125-248h-78l150 475h102z" horiz-adv-x="455" unicode="&#x2c;"/><glyph d="M145 555v90h547v-90h-547z" horiz-adv-x="815" unicode="&#x2d;"/><glyph d="M227-18q-34 0-57 23.5t-23 57.5q0 35 23 57.5t57 22.5 58-22.5 24-57.5q0-34-24-57.5t-58-23.5z" horiz-adv-x="455" unicode="&#x2e;"/><glyph d="M63-238h-92l693 1672h96z" horiz-adv-x="750" unicode="&#x2f;"/><glyph d="M516-25q-198 0-310 182t-112 529q0 383 117.5 577.5t335.5 194.5q414 0 414-735 0-366-117-557t-328-191zM539 1374q-165 0-257-169t-92-507q0-308 88-473.5t250-165.5q159 0 247.5 168.5t88.5 481.5q0 665-325 665z" unicode="&#x30;"/><glyph d="M526 1466v-1466h-92v1321q-69-66-157.5-114t-193.5-85v84q63 21 117 47.5t103.5 58.5 96 70.5 94.5 83.5h32z" horiz-adv-x="730" unicode="&#x31;"/><glyph d="M96 0v67q0 67 11 120.5t33.5 98.5 56 84.5 78 79 101 81 123.5 90.5q65 47 121.5 93t98.5 99 66.5 116.5 24.5 145.5q0 142-78.5 220.5t-220.5 78.5q-96 0-185-42t-174-117v108q82 63 177 99t198 36q86 0 156-26t119.5-74 76.5-116 27-152q0-99-28.5-175.5t-77.5-139-114.5-115-138.5-104.5q-97-69-164-122.5t-109-104.5-60.5-105-18.5-125v-15h713v-84h-812z" unicode="&#x32;"/><glyph d="M115 51v105q164-97 309-97 173 0 271 88.5t98 231.5q0 159-112.5 241t-320.5 82h-110v84h98q192 0 292.5 81.5t100.5 230.5q0 129-73 202.5t-213 73.5q-135 0-283-94v98q162 80 297 80 170 0 269.5-92t99.5-244q0-291-279-370v-4q150-15 240-111.5t90-243.5q0-188-130-303t-337-115q-160 0-307 76z" unicode="&#x33;"/><glyph d="M826 1434v-976h224v-83h-224v-375h-92v375h-684v90q96 109 195 234.5t189.5 253.5 166.5 252 127 229h98zM156 458h578v812q-73-126-151.5-244t-155-222.5-146.5-192.5-125-153z" horiz-adv-x="1087" unicode="&#x34;"/><glyph d="M160 29v106q138-76 274-76 176 0 275 97t99 258q0 350-399 350-90 0-206-12l43 682h597v-84h-515l-33-510q103 8 148 8 227 0 344-111.5t117-310.5q0-201-124-326t-354-125q-151 0-266 54z" unicode="&#x35;"/><glyph d="M889 1423v-98q-102 49-211 49-107 0-192-52.5t-145-147.5-92-226.5-32-290.5h4q105 240 359 240 88 0 160-34t123.5-94 79.5-140.5 28-173.5q0-104-31.5-192t-88.5-152-135.5-100-172.5-36q-99 0-177 42.5t-132 125-82.5 205-28.5 281.5q0 188 37 341t108.5 261.5 175 167.5 236.5 59q118 0 209-35zM559 813q-71 0-131.5-29.5t-104.5-78-69-110.5-25-126q0-82 23-156.5t65-130.5 101.5-89.5 132.5-33.5q69 0 128.5 28.5t102.5 79 67.5 119.5 24.5 150q0 84-21.5 153.5t-62.5 119-99.5 77-131.5 27.5z" unicode="&#x36;"/><glyph d="M293 0q31 185 84 357t123 337.5 153 328 175 327.5h-758v84h882v-34q-101-185-189-356.5t-159.5-340.5-124.5-341.5-83-361.5h-103z" horiz-adv-x="1022" unicode="&#x37;"/><glyph d="M107 400q0 57 16.5 112.5t50 104.5 83.5 88 118 63q-50 24-91 58t-70 75.5-44.5 90-15.5 100.5q0 79 28.5 146t78.5 116 119 76.5 149 27.5q81 0 150-28t119-77 78-116 28-145q0-53-15.5-101t-43.5-90-68-75.5-89-57.5q66-24 115-63t82-88 49-104.5 16-112.5q0-100-31-178.5t-86.5-133-133-83-171.5-28.5q-92 0-169 28.5t-133 82.5-87.5 132.5-31.5 179.5zM202 390q0-75 24-136t66.5-104.5 102-67 131.5-23.5q71 0 131 23.5t103.5 67 67.5 104.5 24 136q0 67-23 127t-65.5 105-103 71.5-134.5 26.5q-69 0-128.5-24.5t-103-68-68-104.5-24.5-133zM252 1089q0-60 21.5-111.5t59-89.5 88-60 107.5-22 108 22 88.5 60.5 59.5 90 22 110.5q0 61-21.5 113t-59 90.5-88 60-109.5 21.5q-62 0-112.5-22.5t-87-61-56.5-90.5-20-111z" unicode="&#x38;"/><glyph d="M178 12v101q115-54 211-54 227 0 346 181.5t119 535.5h-4q-99-231-352-231-89 0-161.5 33t-125 91.5-81 139-28.5 176.5q0 106 32.5 193t90.5 149 137.5 96.5 172.5 34.5q95 0 172-40.5t131-122 83-203 29-283.5q0-200-36.5-355t-107.5-261.5-176-162-243-55.5q-107 0-209 37zM522 1374q-70 0-129.5-28t-102.5-77.5-67-117.5-24-147q0-87 23.5-156.5t65.5-118 101-74.5 131-26q66 0 125 26.5t102.5 71 69 104 25.5 125.5q0 91-23.5 168t-66 132.5-101.5 86.5-129 31z" unicode="&#x39;"/><glyph d="M227 881q-34 0-57 24t-23 58 23 56.5 57 22.5 58-22.5 24-56.5-24-58-58-24zM227-18q-34 0-57 23.5t-23 57.5q0 35 23 57.5t57 22.5 58-22.5 24-57.5q0-34-24-57.5t-58-23.5z" horiz-adv-x="455" unicode="&#x3a;"/><glyph d="M236 881q-35 0-57.5 24t-22.5 58 22.5 56.5 57.5 22.5q34 0 57.5-22.5t23.5-56.5-23.5-58-57.5-24zM125-248h-78l150 475h102z" horiz-adv-x="455" unicode="&#x3b;"/><glyph d="M250 580v18l833 467v-94l-677-379v-4l677-334v-96z" horiz-adv-x="1331" unicode="&#x3c;"/><glyph d="M213 750v84h907v-84h-907zM213 362v84h907v-84h-907z" horiz-adv-x="1331" unicode="&#x3d;"/><glyph d="M250 158v96l678 334v4l-678 379v94l833-467v-18z" horiz-adv-x="1331" unicode="&#x3e;"/><glyph d="M377 398q-10 25-17.5 65.5t-7.5 80.5q0 47 12.5 85.5t35 72.5 54 66 69.5 65q32 29 63 60.5t55 67.5 38.5 78.5 14.5 93.5q0 55-18.5 98.5t-51.5 74-79.5 46.5-102.5 16q-94 0-173.5-33t-149.5-90v107q71 54 149.5 80t174.5 26q74 0 137.5-21t110-61.5 73-99 26.5-133.5q0-57-16-104t-41.5-87-58.5-75-67-68q-53-50-86.5-84.5t-52.5-62.5-26.5-54.5-7.5-62.5q0-46 8-83.5t16-63.5h-81zM412-18q-34 0-56.5 23.5t-22.5 57.5q0 35 22.5 57.5t56.5 22.5q35 0 58.5-22.5t23.5-57.5q0-34-23.5-57.5t-58.5-23.5z" horiz-adv-x="881" unicode="&#x3f;"/><glyph d="M1153 426h-4q-90-238-293-238-140 0-221.5 100.5t-81.5 268.5q0 227 114 378.5t300 151.5q78 0 137-40t78-93h4q4 61 10 119h88l-51-584q0-217 153-217 124 0 204.5 125t80.5 322q0 299-181 477t-507 178q-318 0-518.5-218t-200.5-540q0-327 191-523.5t520-196.5q249 0 426 88v-93q-196-79-436-79-361 0-579 223t-218 581q0 359 235.5 600.5t589.5 241.5q351 0 562.5-206t211.5-523q0-237-107.5-389t-268.5-152q-222 0-238 238zM963 1004q-144 0-229-120t-85-319q0-135 57.5-214t159.5-79q136 0 216.5 139t80.5 355q0 117-53.5 177.5t-146.5 60.5z" horiz-adv-x="1933" unicode="&#x40;"/><glyph d="M1118 0l-164 446h-622l-164-446h-109l541 1434h94l535-1434h-111zM678 1200q-11 30-18 59-7 25-15 50h-4q-17-66-33-107l-241-665h553z" horiz-adv-x="1288" unicode="&#x41;"/><glyph d="M184 0v1434h377q169 0 269-91t100-241q0-125-66.5-216.5t-185.5-129.5v-4q149-14 235-106.5t86-235.5q0-181-117-295.5t-313-114.5h-385zM283 1343v-555h200q156 0 250 80t94 217q0 258-305 258h-239zM283 698v-608h266q169 0 258.5 81t89.5 230q0 297-403 297h-211z" horiz-adv-x="1114" unicode="&#x42;"/><glyph d="M1137 47q-174-72-363-72-294 0-479.5 197.5t-185.5 515.5q0 349 201 559.5t511 210.5q165 0 316-53v-105q-151 68-318 68-270 0-439-183t-169-487q0-293 161.5-462.5t409.5-169.5q198 0 355 77v-96z" horiz-adv-x="1272" unicode="&#x43;"/><glyph d="M184 0v1434h359q357 0 543-178t186-519q0-328-199.5-532.5t-550.5-204.5h-338zM283 1343v-1253h225q319 0 490 165.5t171 477.5q0 610-641 610h-245z" horiz-adv-x="1380" unicode="&#x44;"/><glyph d="M184 0v1434h670v-91h-571v-575h530v-90h-530v-588h604v-90h-703z" horiz-adv-x="1024" unicode="&#x45;"/><glyph d="M283 1343v-585h530v-90h-530v-668h-99v1434h670v-91h-571z" horiz-adv-x="952" unicode="&#x46;"/><glyph d="M1221 100q-222-125-457-125-293 0-474 199t-181 522q0 326 195 544t521 218q189 0 367-76v-108q-195 94-381 94-271 0-435.5-185t-164.5-472q0-302 154.5-473.5t416.5-171.5q194 0 340 84v473h-338v90h437v-613z" horiz-adv-x="1368" unicode="&#x47;"/><glyph d="M1104 0v688h-821v-688h-99v1434h99v-656h821v656h98v-1434h-98z" horiz-adv-x="1386" unicode="&#x48;"/><glyph d="M184 0v1434h99v-1434h-99z" horiz-adv-x="467" unicode="&#x49;"/><glyph d="M487 494q0-519-360-519-56 0-109 15v96q59-20 111-20 138 0 199 104.5t61 325.5v938h98v-940z" horiz-adv-x="664" unicode="&#x4a;"/><glyph d="M922 0l-611 686q-17 19-24 33h-4v-719h-99v1434h99v-676h4q12 21 26 35l580 641h129l-629-695 668-739h-139z" horiz-adv-x="1079" unicode="&#x4b;"/><glyph d="M184 0v1434h99v-1344h575v-90h-674z" horiz-adv-x="938" unicode="&#x4c;"/><glyph d="M1427 0v1018q0 37 11 211h-4q-31-81-52-125l-510-1104h-32l-512 1098q-25 53-47 135h-5q7-96 7-191v-1042h-99v1434h92l535-1155q5-10 11-27t13-34q10-26 21-58h6l11 32q1 4 34 95l527 1147h88v-1434h-95z" horiz-adv-x="1706" unicode="&#x4d;"/><glyph d="M1198 0l-854 1159q-26 35-46 70l-13 20h-4q2-26 2-63v-1186h-99v1434h76l848-1149q28-38 61-92h5q-5 70-5 120v1121h99v-1434h-70z" horiz-adv-x="1452" unicode="&#x4e;"/><glyph d="M774-25q-304 0-484.5 202t-180.5 525q0 343 185.5 549.5t506.5 206.5q290 0 469.5-198.5t179.5-520.5q0-356-184-560t-492-204zM784 1368q-250 0-411.5-181t-161.5-474q0-296 153-471.5t408-175.5q266 0 421 173.5t155 483.5q0 304-151.5 474.5t-412.5 170.5z" horiz-adv-x="1559" unicode="&#x4f;"/><glyph d="M283 575v-575h-99v1434h346q221 0 338-102.5t117-299.5q0-200-130.5-328.5t-365.5-128.5h-206zM283 1343v-677h204q194 0 295 92.5t101 261.5q0 323-371 323h-229z" horiz-adv-x="1114" unicode="&#x50;"/><glyph d="M774-25q-304 0-484.5 202t-180.5 525q0 343 185.5 549.5t506.5 206.5q290 0 469.5-198.5t179.5-520.5q0-356-184-560-57-64-127-107l348-265h-167l-271 218q-122-50-275-50zM784 1368q-250 0-411.5-181t-161.5-474q0-296 153-471.5t408-175.5q266 0 421 173.5t155 483.5q0 304-151.5 474.5t-412.5 170.5z" horiz-adv-x="1544" unicode="&#x51;"/><glyph d="M918 0l-191 420q-59 130-118 174.5t-148 44.5h-178v-639h-99v1434h398q190 0 298.5-102.5t108.5-270.5q0-155-89-259t-249-134v-4q85-34 166-207l213-457h-112zM283 1343v-614h247q164 0 260.5 86t96.5 236q0 137-87 214.5t-249 77.5h-268z" horiz-adv-x="1137" unicode="&#x52;"/><glyph d="M139 51v113q154-98 312-98 168 0 255 69.5t87 194.5q0 110-58.5 175.5t-253.5 178.5q-218 127-276 212.5t-58 197.5q0 152 118 258t315 106q128 0 256-43v-104q-126 57-269 57-146 0-231.5-74t-85.5-188q0-110 58.5-175t252.5-177q201-114 267.5-202.5t66.5-203.5q0-165-114.5-269t-323.5-104q-74 0-170.5 23t-147.5 53z" horiz-adv-x="1018" unicode="&#x53;"/><glyph d="M573 1343v-1343h-98v1343h-414v91h926v-91h-414z" horiz-adv-x="1047" unicode="&#x54;"/><glyph d="M1161 573q0-598-510-598-485 0-485 576v883h98v-869q0-499 406-499 393 0 393 485v883h98v-861z" horiz-adv-x="1327" unicode="&#x55;"/><glyph d="M639 0h-74l-524 1434h111l415-1155q26-72 37-136h4q10 51 41 138l441 1153h106z" horiz-adv-x="1237" unicode="&#x56;"/><glyph d="M1362 0h-82l-319 1079q-24 83-27 135h-4q-3-44-31-133l-340-1081h-82l-426 1434h111l327-1149q22-78 31-127h4q6 37 35 127l354 1149h50l325-1149q23-80 31-127h4q5 28 16 64l336 1212h107z" horiz-adv-x="1833" unicode="&#x57;"/><glyph d="M961 0l-330 547q-31 51-53 100h-5q-27-55-57-100l-336-547h-119l453 723-426 711h119l321-539q25-42 52-96h4l53 96 319 539h115l-430-709 440-725h-120z" horiz-adv-x="1153" unicode="&#x58;"/><glyph d="M598 545v-545h-98v543l-439 891h111l334-691q18-36 45-106h4q14 37 49 104l350 693h107z" horiz-adv-x="1106" unicode="&#x59;"/><glyph d="M215 90h858v-90h-1007v31l868 1312h-799v91h952v-27z" horiz-adv-x="1167" unicode="&#x5a;"/><glyph d="M209-326v1760h317v-84h-225v-1592h225v-84h-317z" horiz-adv-x="578" unicode="&#x5b;"/><glyph d="M668-238l-697 1672h97l692-1672h-92z" horiz-adv-x="750" unicode="&#x5c;"/><glyph d="M51-326v84h225v1592h-225v84h318v-1760h-318z" horiz-adv-x="578" unicode="&#x5d;"/><glyph d="M975 702l-307 613h-4l-308-613h-96l385 756h41l385-756h-96z" horiz-adv-x="1331" unicode="&#x5e;"/><glyph d="M0-268v90h850v-90h-850z" horiz-adv-x="850" unicode="&#x5f;"/><glyph d="M324 1188l-248 328h104l234-328h-90z" horiz-adv-x="508" unicode="&#x60;"/><glyph d="M776 0v205h-4q-49-105-142.5-167.5t-207.5-62.5q-146 0-231 82t-85 207q0 268 355 324l315 47q0 330-248 330-169 0-329-136v111q57 45 154.5 77t183.5 32q158 0 244.5-98t86.5-285v-666h-92zM494 510q-161-23-226-74.5t-65-167.5q0-91 60.5-150t168.5-59q148 0 246 109.5t98 282.5v100z" horiz-adv-x="1012" unicode="&#x61;"/><glyph d="M260 182h-4v-182h-92v1516h92v-703h4q55 113 157.5 174.5t225.5 61.5q195 0 304.5-134.5t109.5-365.5q0-257-127-415.5t-330-158.5q-230 0-340 207zM256 563v-129q0-154 97-264.5t255-110.5q157 0 255 134.5t98 353.5q0 192-90 305t-240 113q-179 0-277-120t-98-282z" horiz-adv-x="1147" unicode="&#x62;"/><glyph d="M827 45q-114-70-272-70-209 0-337 143.5t-128 375.5q0 244 144 399.5t370 155.5q117 0 227-48v-104q-110 68-241 68-180 0-292-129.5t-112-335.5q0-199 102.5-320t270.5-121q154 0 268 82v-96z" horiz-adv-x="909" unicode="&#x63;"/><glyph d="M891 0v186h-4q-50-97-148-154t-221-57q-189 0-308.5 138t-119.5 381q0 248 130.5 401.5t338.5 153.5q230 0 328-189h4v656h92v-1516h-92zM891 623q0 143-90.5 242.5t-243.5 99.5q-161 0-266-123.5t-105-339.5q0-212 94.5-327.5t243.5-115.5q175 0 271 108.5t96 264.5v191z" horiz-adv-x="1147" unicode="&#x64;"/><glyph d="M186 508q0-211 97.5-330t267.5-119q172 0 336 127v-98q-159-113-355-113-198 0-320 142t-122 401q0 224 127.5 377.5t331.5 153.5q191 0 293-134t102-366v-41h-758zM848 592q-6 177-85 275t-218 98q-144 0-238.5-96.5t-116.5-276.5h658z" horiz-adv-x="1034" unicode="&#x65;"/><glyph d="M612 1419q-37 29-112 29-189 0-189-254v-170h271v-84h-271v-940h-92v940h-184v84h184v178q0 162 81.5 246t203.5 84q65 0 108-19v-94z" horiz-adv-x="565" unicode="&#x66;"/><glyph d="M983 76q0-289-126-423t-392-134q-148 0-305 78v96q162-90 307-90 424 0 424 448v133h-4q-121-209-369-209-189 0-308.5 137t-119.5 382 129 400 340 155q226 0 328-187h4v162h92v-948zM891 631q0 136-91.5 235t-238.5 99q-169 0-272-127t-103-336q0-210 94.5-326.5t249.5-116.5q165 0 263 107t98 262v203z" horiz-adv-x="1147" unicode="&#x67;"/><glyph d="M860 0v614q0 182-66 266.5t-206 84.5q-132 0-232-103t-100-295v-567h-92v1516h92v-676h4q121 209 352 209 166 0 253-107t87-307v-635h-92z" horiz-adv-x="1096" unicode="&#x68;"/><glyph d="M209 1282q-30 0-53 22t-23 56q0 33 23.5 53.5t52.5 20.5q31 0 54.5-20t23.5-54q0-32-23-55t-55-23zM164 0v1024h92v-1024h-92z" horiz-adv-x="420" unicode="&#x69;"/><glyph d="M209 1282q-30 0-53 22t-23 56q0 33 23.5 53.5t52.5 20.5q31 0 54.5-20t23.5-54q0-32-23-55t-55-23zM256 29q0-510-362-510-72 0-146 35v96q80-47 156-47 260 0 260 409v1012h92v-995z" horiz-adv-x="420" unicode="&#x6a;"/><glyph d="M750 0l-490 506h-4v-506h-92v1516h92v-977h4l465 485h119l-486-496 525-528h-133z" horiz-adv-x="909" unicode="&#x6b;"/><glyph d="M164 0v1516h92v-1516h-92z" horiz-adv-x="420" unicode="&#x6c;"/><glyph d="M1448 0v616q0 193-60.5 271t-191.5 78q-121 0-209-104t-88-261v-600h-92v623q0 342-260 342-125 0-208-104.5t-83-270.5v-590h-92v1024h92v-170h4q107 195 313 195 112 0 191.5-64.5t107.5-169.5q48 111 137.5 172.5t194.5 61.5q336 0 336-416v-633h-92z" horiz-adv-x="1683" unicode="&#x6d;"/><glyph d="M860 0v596q0 369-266 369-148 0-243-108.5t-95-268.5v-588h-92v1024h92v-186h4q112 211 350 211 166 0 254-110.5t88-315.5v-623h-92z" horiz-adv-x="1096" unicode="&#x6e;"/><glyph d="M575-25q-224 0-354.5 147.5t-130.5 383.5q0 255 136.5 399t359.5 144q219 0 346-143t127-396q0-239-129.5-387t-354.5-148zM582 965q-181 0-288.5-122t-107.5-339q0-201 105-323t287-122q185 0 285 120t100 333q0 219-99.5 336t-281.5 117z" horiz-adv-x="1149" unicode="&#x6f;"/><glyph d="M260 182h-4v-653h-92v1495h92v-211h4q55 113 157.5 174.5t225.5 61.5q195 0 304.5-134.5t109.5-365.5q0-257-125.5-415.5t-331.5-158.5q-230 0-340 207zM256 563v-129q0-154 97-264.5t255-110.5q157 0 255 134.5t98 353.5q0 192-90 305t-240 113q-179 0-277-120t-98-282z" horiz-adv-x="1147" unicode="&#x70;"/><glyph d="M891-471v659h-4q-114-213-371-213-192 0-309 141t-117 380q0 255 133 404t338 149q229 0 326-191h4v166h92v-1495h-92zM891 614q0 153-89 252t-247 99q-159 0-264-122.5t-105-342.5q0-206 93.5-323.5t242.5-117.5q179 0 274 110t95 269v176z" horiz-adv-x="1147" unicode="&#x71;"/><glyph d="M647 928q-46 33-108 33-121 0-203-125t-82-355v-481h-90v1024h90v-227h4q35 117 111 182t176 65q57 0 102-18v-98z" horiz-adv-x="676" unicode="&#x72;"/><glyph d="M111 45v111q52-45 126-71t128-26q241 0 241 197 0 68-53 116t-172 99q-147 64-206.5 132.5t-59.5 166.5q0 125 95.5 202t235.5 77q132 0 226-54v-104q-114 74-236 74-101 0-163-52.5t-62-136.5q0-73 39-118.5t172-104.5q160-72 220-133.5t60-163.5q0-122-91.5-201.5t-252.5-79.5q-148 0-247 70z" horiz-adv-x="795" unicode="&#x73;"/><glyph d="M569 14q-72-34-135-34-227 0-227 272v688h-184v84h184v266q22 8 46 16 24 7 46 15v-297h270v-84h-270v-676q0-106 33.5-153.5t113.5-47.5q57 0 123 37v-86z" horiz-adv-x="608" unicode="&#x74;"/><glyph d="M840 0v186h-4q-107-211-330-211-363 0-363 457v592h93v-569q0-208 68.5-302t215.5-94q143 0 231.5 105t88.5 280v580h92v-1024h-92z" horiz-adv-x="1096" unicode="&#x75;"/><glyph d="M500 0h-84l-396 1024h103l305-815q22-59 31-107h4q13 63 29 103l315 819h100z" horiz-adv-x="928" unicode="&#x76;"/><glyph d="M1032 0h-86l-223 772q-9 32-16 86h-5q-2-23-20-84l-250-774h-86l-309 1024h102l238-817q9-32 14-86h8q2 29 19 86l260 817h63l232-817q8-29 14-86h8q0 29 17 86l243 817h95z" horiz-adv-x="1386" unicode="&#x77;"/><glyph d="M481 502l334-502h-117l-270 432h-4l-36-57q-7-12-17-27l-226-348h-112l342 500-336 524h108l228-367q44-71 53-88h4l51 84 238 371h108z" horiz-adv-x="862" unicode="&#x78;"/><glyph d="M414-209q-56-138-124-205t-175-67q-45 0-80 14v92q36-14 84-14 123 0 194 170l95 227-388 1016h103l309-834q10-27 14-41 4-19 9-34h4l24 69 330 840h100z" horiz-adv-x="928" unicode="&#x79;"/><glyph d="M207 84h661v-84h-811v35l680 905h-631v84h787v-25z" horiz-adv-x="950" unicode="&#x7a;"/><glyph d="M506-326q-127 5-191.5 72t-64.5 219v297q0 237-156 260v64q156 22 156 243v314q0 152 64.5 219t191.5 72v-84q-88-5-124-57t-36-179v-293q0-222-145-266v-4q145-46 145-281v-276q0-127 36-179t124-57v-84z" horiz-adv-x="578" unicode="&#x7b;"/><glyph d="M184-481v2048h95v-2048h-95z" horiz-adv-x="463" unicode="&#x7c;"/><glyph d="M483 522q-155-23-155-260v-297q0-153-64.5-219.5t-191.5-71.5v84q82 5 120.5 53t38.5 183v276q0 235 146 281v4q-146 45-146 266v293q0 135-38.5 183t-120.5 53v84q127-5 191.5-71.5t64.5-219.5v-314q0-221 155-243v-64z" horiz-adv-x="578" unicode="&#x7d;"/><glyph d="M1087 711q-7-114-68.5-178t-164.5-64q-95 0-201 84-105 84-176 84-141 0-153-158h-78q6 113 68 177.5t165 64.5q95 0 195-80 70-55 105-72.5t79-17.5q133 0 152 160h77z" horiz-adv-x="1331" unicode="&#x7e;"/><glyph d="M903 209q-91-56-221-68v-198h-92v198q-194 17-309 157.5t-115 358.5q0 215 114.5 365.5t309.5 183.5v199h92v-193q118 0 225-47v-104q-104 63-225 67v-903q130 10 221 80v-96zM590 1122q-153-29-240.5-153.5t-87.5-304.5q0-183 87-300.5t241-138.5v897z" unicode="&#xa2;"/><glyph d="M80 0v86q248 103 248 365v211h-228v90h228v290q0 188 99 302t263 114q96 0 182-35v-94q-90 45-186 45-125 0-195.5-88t-70.5-256v-278h307v-90h-307v-177q0-295-213-401h741v-84h-868z" unicode="&#xa3;"/><glyph d="M602 745h344v-83h-373v-246h373v-84h-373v-332h-92v332h-372v84h372v246h-372v83h342l-377 689h102l307-572q37-68 47-96h5q20 66 43 100l311 568h96z" unicode="&#xa5;"/><glyph d="M618 403q95-71 95-200 0-114-89-191.5t-231-77.5q-107 0-217 50v98q118-64 219-64 109 0 165 50.5t56 132.5q0 54-30.5 102t-140.5 101q-177 84-228 160.5t-51 172.5q0 172 162 256-123 83-123 219 0 125 82 202t227 77q110 0 195-37v-96q-86 49-197 49-211 0-211-188 0-80 55.5-132t212.5-122q203-94 203-279 0-162-154-283zM406 946q-144-65-144-203 0-98 59-155.5t224-130.5q69 51 100 100t31 129q0 77-48 130t-222 130z" horiz-adv-x="918" unicode="&#xa7;"/><glyph d="M575 1188q-27 0-49 19.5t-22 52.5q0 31 21.5 50t47.5 19q29 0 52.5-19.5t23.5-49.5q0-31-21.5-51.5t-52.5-20.5zM242 1188q-28 0-50 19.5t-22 52.5q0 31 22 50t48 19q29 0 52-19.5t23-49.5q0-31-21-51.5t-52-20.5z" horiz-adv-x="817" unicode="&#xa8;"/><glyph d="M903-25q-311 0-529 216.5t-218 523.5q0 310 219.5 526.5t525.5 216.5q308 0 528-217t220-524q0-308-218.5-525t-527.5-217zM901 1382q-272 0-468.5-196t-196.5-471q0-273 195-468.5t470-195.5q277 0 472.5 196t195.5 468q0 275-196.5 471t-471.5 196zM1182 270q-123-71-250-71-209 0-352.5 141t-143.5 350q0 246 145.5 390.5t366.5 144.5q127 0 230-54v-86q-106 58-246 58-170 0-287-117.5t-117-314.5q0-192 121.5-310t292.5-118q130 0 240 67v-80z" horiz-adv-x="1804" unicode="&#xa9;"/><glyph d="M717 201l-277 336 277 344h114l-282-344 280-336h-112zM399 201l-276 336 276 344h113l-281-344 281-336h-113z" horiz-adv-x="952" unicode="&#xab;"/><glyph d="M145 555v90h547v-90h-547z" horiz-adv-x="815" unicode="&#xad;"/><glyph d="M897 255q-250 0-425.5 175t-175.5 423q0 251 176.5 426t423.5 175q248 0 425-175.5t177-422.5q0-250-175.5-425.5t-425.5-175.5zM893 1386q-216 0-370.5-156.5t-154.5-376.5q0-218 153.5-374t371.5-156q220 0 376.5 156t156.5 374q0 220-157 376.5t-376 156.5zM1087 482l-92 197q-40 86-77.5 115.5t-84.5 29.5h-77v-342h-82v772h211q128 0 197-55.5t69-147.5q0-177-202-214v-3q68-14 128-140l102-212h-92zM756 1191v-303h139q78 0 125 40t47 110q0 153-191 153h-120z" horiz-adv-x="1804" unicode="&#xae;"/><glyph d="M397 930q-104 0-179 75t-75 179q0 102 73.5 176t176.5 74q105 0 179.5-73.5t74.5-176.5q0-105-73.5-179.5t-176.5-74.5zM397 1358q-71 0-121.5-51.5t-50.5-122.5q0-73 49.5-125.5t118.5-52.5q70 0 120 52.5t50 125.5q0 74-48 124t-118 50z" horiz-adv-x="791" unicode="&#xb0;"/><glyph d="M227 1188h-90l234 328h104z" horiz-adv-x="508" unicode="&#xb4;"/><glyph d="M733 1348v-1348h-86v1348h-198v-1348h-87v903q-105 0-177 76t-72 188q0 121 75.5 194t180.5 73h495v-86h-131z" horiz-adv-x="971" unicode="&#xb6;"/><glyph d="M227 625q-34 0-57 24t-23 58 23 56.5 57 22.5 58-22.5 24-56.5-24-58-58-24z" horiz-adv-x="455" unicode="&#xb7;"/><glyph d="M57-430v74q50-6 86-6 160 0 160 92 0 86-145 86-32 0-64-4v188h72v-117q225 0 225-147 0-170-254-170-36 0-80 4z" horiz-adv-x="412" unicode="&#xb8;"/><glyph d="M553 201h-113l283 344-283 336h113l278-336zM238 201h-117l285 344-285 336h115l276-336z" horiz-adv-x="952" unicode="&#xbb;"/><glyph d="M1118 0l-164 446h-622l-164-446h-109l541 1434h94l535-1434h-111zM678 1200q-11 30-18 59-7 25-15 50h-4q-17-66-33-107l-241-665h553zM719 1536l-248 328h104l234-328h-90z" horiz-adv-x="1288" unicode="&#xc0;"/><glyph d="M1118 0l-164 446h-622l-164-446h-109l541 1434h94l535-1434h-111zM678 1200q-11 30-18 59-7 25-15 50h-4q-17-66-33-107l-241-665h553zM799 1535l-157 239-160-239h-82l221 336h45l219-336h-86z" horiz-adv-x="1288" unicode="&#xc2;"/><glyph d="M1118 0l-164 446h-622l-164-446h-109l541 1434h94l535-1434h-111zM678 1200q-11 30-18 59-7 25-15 50h-4q-17-66-33-107l-241-665h553zM812 1530q-27 0-49 19.5t-22 52.5q0 31 21.5 50t47.5 19q29 0 52.5-19.5t23.5-49.5q0-31-21.5-51.5t-52.5-20.5zM479 1530q-28 0-50 19.5t-22 52.5q0 31 22 50t48 19q29 0 52-19.5t23-49.5q0-31-21-51.5t-52-20.5z" horiz-adv-x="1288" unicode="&#xc4;"/><glyph d="M846 0v446h-502l-219-446h-109l697 1434h803v-97h-572v-571h531v-90h-531v-586h604v-90h-702zM846 1337h-78l-383-800h461v800z" horiz-adv-x="1706" unicode="&#xc6;"/><glyph d="M1137 47q-216-85-420-70v-94q225 0 225-147 0-170-254-170-36 0-80 4v74q50-6 86-6 160 0 160 92 0 86-145 86-32 0-64-4v174q-252 46-394 237t-142 465q0 349 201 559.5t511 210.5q165 0 316-53v-105q-151 68-318 68-270 0-439-183t-169-487q0-293 161.5-462.5t409.5-169.5q198 0 355 77v-96z" horiz-adv-x="1272" unicode="&#xc7;"/><glyph d="M184 0v1434h670v-91h-571v-575h530v-90h-530v-588h604v-90h-703zM556 1536l-248 328h104l234-328h-90z" horiz-adv-x="1024" unicode="&#xc8;"/><glyph d="M184 0v1434h670v-91h-571v-575h530v-90h-530v-588h604v-90h-703zM506 1533h-90l234 328h104z" horiz-adv-x="1024" unicode="&#xc9;"/><glyph d="M184 0v1434h670v-91h-571v-575h530v-90h-530v-588h604v-90h-703zM699 1537l-157 239-160-239h-82l221 336h45l219-336h-86z" horiz-adv-x="1024" unicode="&#xca;"/><glyph d="M184 0v1434h670v-91h-571v-575h530v-90h-530v-588h604v-90h-703zM714 1536q-27 0-49 19.5t-22 52.5q0 31 21.5 50t47.5 19q29 0 52.5-19.5t23.5-49.5q0-31-21.5-51.5t-52.5-20.5zM381 1536q-28 0-50 19.5t-22 52.5q0 31 22 50t48 19q29 0 52-19.5t23-49.5q0-31-21-51.5t-52-20.5z" horiz-adv-x="1024" unicode="&#xcb;"/><glyph d="M184 0v1434h99v-1434h-99zM389 1537l-157 239-160-239h-82l221 336h45l219-336h-86z" horiz-adv-x="467" unicode="&#xce;"/><glyph d="M184 0v1434h99v-1434h-99zM397 1536q-27 0-49 19.5t-22 52.5q0 31 21.5 50t47.5 19q29 0 52.5-19.5t23.5-49.5q0-31-21.5-51.5t-52.5-20.5zM64 1536q-28 0-50 19.5t-22 52.5q0 31 22 50t48 19q29 0 52-19.5t23-49.5q0-31-21-51.5t-52-20.5z" horiz-adv-x="467" unicode="&#xcf;"/><glyph d="M774-25q-304 0-484.5 202t-180.5 525q0 343 185.5 549.5t506.5 206.5q290 0 469.5-198.5t179.5-520.5q0-356-184-560t-492-204zM784 1368q-250 0-411.5-181t-161.5-474q0-296 153-471.5t408-175.5q266 0 421 173.5t155 483.5q0 304-151.5 474.5t-412.5 170.5zM935 1536l-157 239-160-239h-82l221 336h45l219-336h-86z" horiz-adv-x="1559" unicode="&#xd4;"/><glyph d="M774-25q-304 0-484.5 202t-180.5 525q0 343 185.5 549.5t506.5 206.5q290 0 469.5-198.5t179.5-520.5q0-356-184-560t-492-204zM784 1368q-250 0-411.5-181t-161.5-474q0-296 153-471.5t408-175.5q266 0 421 173.5t155 483.5q0 304-151.5 474.5t-412.5 170.5zM950 1533q-27 0-49 19.5t-22 52.5q0 31 21.5 50t47.5 19q29 0 52.5-19.5t23.5-49.5q0-31-21.5-51.5t-52.5-20.5zM617 1533q-28 0-50 19.5t-22 52.5q0 31 22 50t48 19q29 0 52-19.5t23-49.5q0-31-21-51.5t-52-20.5z" horiz-adv-x="1559" unicode="&#xd6;"/><glyph d="M1161 573q0-598-510-598-485 0-485 576v883h98v-869q0-499 406-499 393 0 393 485v883h98v-861zM683 1536l-248 328h104l234-328h-90z" horiz-adv-x="1327" unicode="&#xd9;"/><glyph d="M1161 573q0-598-510-598-485 0-485 576v883h98v-869q0-499 406-499 393 0 393 485v883h98v-861zM859 1537l-157 239-160-239h-82l221 336h45l219-336h-86z" horiz-adv-x="1327" unicode="&#xdb;"/><glyph d="M1161 573q0-598-510-598-485 0-485 576v883h98v-869q0-499 406-499 393 0 393 485v883h98v-861zM860 1537q-27 0-49 19.5t-22 52.5q0 31 21.5 50t47.5 19q29 0 52.5-19.5t23.5-49.5q0-31-21.5-51.5t-52.5-20.5zM527 1537q-28 0-50 19.5t-22 52.5q0 31 22 50t48 19q29 0 52-19.5t23-49.5q0-31-21-51.5t-52-20.5z" horiz-adv-x="1327" unicode="&#xdc;"/><glyph d="M430-6v94q73-29 141-29 141 0 224.5 88t83.5 234q0 155-109 257t-307 134v80q307 70 307 332 0 122-64.5 193t-179.5 71q-128 0-199-91t-71-255v-1100h-92v1114q0 196 101 306t270 110q149 0 240-92t91-242q0-264-256-375v-4q170-45 267.5-161.5t97.5-270.5q0-179-111-295.5t-289-116.5q-69 0-145 19z" horiz-adv-x="1061" unicode="&#xdf;"/><glyph d="M776 0v205h-4q-49-105-142.5-167.5t-207.5-62.5q-146 0-231 82t-85 207q0 268 355 324l315 47q0 330-248 330-169 0-329-136v111q57 45 154.5 77t183.5 32q158 0 244.5-98t86.5-285v-666h-92zM494 510q-161-23-226-74.5t-65-167.5q0-91 60.5-150t168.5-59q148 0 246 109.5t98 282.5v100zM519 1188l-248 328h104l234-328h-90z" horiz-adv-x="1012" unicode="&#xe0;"/><glyph d="M776 0v205h-4q-49-105-142.5-167.5t-207.5-62.5q-146 0-231 82t-85 207q0 268 355 324l315 47q0 330-248 330-169 0-329-136v111q57 45 154.5 77t183.5 32q158 0 244.5-98t86.5-285v-666h-92zM494 510q-161-23-226-74.5t-65-167.5q0-91 60.5-150t168.5-59q148 0 246 109.5t98 282.5v100zM670 1188l-157 239-160-239h-82l221 336h45l219-336h-86z" horiz-adv-x="1012" unicode="&#xe2;"/><glyph d="M776 0v205h-4q-49-105-142.5-167.5t-207.5-62.5q-146 0-231 82t-85 207q0 268 355 324l315 47q0 330-248 330-169 0-329-136v111q57 45 154.5 77t183.5 32q158 0 244.5-98t86.5-285v-666h-92zM494 510q-161-23-226-74.5t-65-167.5q0-91 60.5-150t168.5-59q148 0 246 109.5t98 282.5v100zM665 1188q-27 0-49 19.5t-22 52.5q0 31 21.5 50t47.5 19q29 0 52.5-19.5t23.5-49.5q0-31-21.5-51.5t-52.5-20.5zM332 1188q-28 0-50 19.5t-22 52.5q0 31 22 50t48 19q29 0 52-19.5t23-49.5q0-31-21-51.5t-52-20.5z" horiz-adv-x="1012" unicode="&#xe4;"/><glyph d="M868 508q0-211 97.5-330t267.5-119q172 0 336 127v-98q-159-113-355-113-136 0-240 74.5t-151 210.5h-4q-133-285-391-285-150 0-236 80.5t-86 208.5q0 143 99 225t287 91l284 12q0 373-239 373-186 0-338-134v109q161 109 348 109 230 0 295-254h4q126 254 383 254 190 0 293.5-133t103.5-367v-41h-758zM1530 592q-6 177-85 275t-218 98q-144 0-238.5-96.5t-116.5-276.5h658zM776 508l-264-8q-156-5-232.5-58.5t-76.5-173.5q0-98 63.5-153.5t171.5-55.5q136 0 237 107.5t101 259.5v82z" horiz-adv-x="1718" unicode="&#xe6;"/><glyph d="M827 45q-114-70-272-70-209 0-337 143.5t-128 375.5q0 244 144 399.5t370 155.5q117 0 227-48v-104q-110 68-241 68-180 0-292-129.5t-112-335.5q0-199 102.5-320t270.5-121q154 0 268 82v-96zM403-430v74q50-6 86-6 160 0 160 92 0 86-145 86-32 0-64-4v188h72v-117q225 0 225-147 0-170-254-170-36 0-80 4z" horiz-adv-x="909" unicode="&#xe7;"/><glyph d="M186 508q0-211 97.5-330t267.5-119q172 0 336 127v-98q-159-113-355-113-198 0-320 142t-122 401q0 224 127.5 377.5t331.5 153.5q191 0 293-134t102-366v-41h-758zM848 592q-6 177-85 275t-218 98q-144 0-238.5-96.5t-116.5-276.5h658zM569 1188l-248 328h104l234-328h-90z" horiz-adv-x="1034" unicode="&#xe8;"/><glyph d="M186 508q0-211 97.5-330t267.5-119q172 0 336 127v-98q-159-113-355-113-198 0-320 142t-122 401q0 224 127.5 377.5t331.5 153.5q191 0 293-134t102-366v-41h-758zM848 592q-6 177-85 275t-218 98q-144 0-238.5-96.5t-116.5-276.5h658zM489 1188h-90l234 328h104z" horiz-adv-x="1034" unicode="&#xe9;"/><glyph d="M186 508q0-211 97.5-330t267.5-119q172 0 336 127v-98q-159-113-355-113-198 0-320 142t-122 401q0 224 127.5 377.5t331.5 153.5q191 0 293-134t102-366v-41h-758zM848 592q-6 177-85 275t-218 98q-144 0-238.5-96.5t-116.5-276.5h658zM704 1188l-157 239-160-239h-82l221 336h45l219-336h-86z" horiz-adv-x="1034" unicode="&#xea;"/><glyph d="M186 508q0-211 97.5-330t267.5-119q172 0 336 127v-98q-159-113-355-113-198 0-320 142t-122 401q0 224 127.5 377.5t331.5 153.5q191 0 293-134t102-366v-41h-758zM848 592q-6 177-85 275t-218 98q-144 0-238.5-96.5t-116.5-276.5h658zM702 1188q-27 0-49 19.5t-22 52.5q0 31 21.5 50t47.5 19q29 0 52.5-19.5t23.5-49.5q0-31-21.5-51.5t-52.5-20.5zM369 1188q-28 0-50 19.5t-22 52.5q0 31 22 50t48 19q29 0 52-19.5t23-49.5q0-31-21-51.5t-52-20.5z" horiz-adv-x="1034" unicode="&#xeb;"/><glyph d="M164 0v1024h92v-1024h-92zM369 1188l-157 239-160-239h-82l221 336h45l219-336h-86z" horiz-adv-x="420" unicode="&#xee;"/><glyph d="M164 0v1024h92v-1024h-92zM377 1188q-27 0-49 19.5t-22 52.5q0 31 21.5 50t47.5 19q29 0 52.5-19.5t23.5-49.5q0-31-21.5-51.5t-52.5-20.5zM44 1188q-28 0-50 19.5t-22 52.5q0 31 22 50t48 19q29 0 52-19.5t23-49.5q0-31-21-51.5t-52-20.5z" horiz-adv-x="420" unicode="&#xef;"/><glyph d="M575-25q-224 0-354.5 147.5t-130.5 383.5q0 255 136.5 399t359.5 144q219 0 346-143t127-396q0-239-129.5-387t-354.5-148zM582 965q-181 0-288.5-122t-107.5-339q0-201 105-323t287-122q185 0 285 120t100 333q0 219-99.5 336t-281.5 117zM748 1188l-157 239-160-239h-82l221 336h45l219-336h-86z" horiz-adv-x="1149" unicode="&#xf4;"/><glyph d="M575-25q-224 0-354.5 147.5t-130.5 383.5q0 255 136.5 399t359.5 144q219 0 346-143t127-396q0-239-129.5-387t-354.5-148zM582 965q-181 0-288.5-122t-107.5-339q0-201 105-323t287-122q185 0 285 120t100 333q0 219-99.5 336t-281.5 117zM749 1188q-27 0-49 19.5t-22 52.5q0 31 21.5 50t47.5 19q29 0 52.5-19.5t23.5-49.5q0-31-21.5-51.5t-52.5-20.5zM416 1188q-28 0-50 19.5t-22 52.5q0 31 22 50t48 19q29 0 52-19.5t23-49.5q0-31-21-51.5t-52-20.5z" horiz-adv-x="1149" unicode="&#xf6;"/><glyph d="M840 0v186h-4q-107-211-330-211-363 0-363 457v592h93v-569q0-208 68.5-302t215.5-94q143 0 231.5 105t88.5 280v580h92v-1024h-92zM558 1188l-248 328h104l234-328h-90z" horiz-adv-x="1096" unicode="&#xf9;"/><glyph d="M840 0v186h-4q-107-211-330-211-363 0-363 457v592h93v-569q0-208 68.5-302t215.5-94q143 0 231.5 105t88.5 280v580h92v-1024h-92zM726 1188l-157 239-160-239h-82l221 336h45l219-336h-86z" horiz-adv-x="1096" unicode="&#xfb;"/><glyph d="M840 0v186h-4q-107-211-330-211-363 0-363 457v592h93v-569q0-208 68.5-302t215.5-94q143 0 231.5 105t88.5 280v580h92v-1024h-92zM735 1188q-27 0-49 19.5t-22 52.5q0 31 21.5 50t47.5 19q29 0 52.5-19.5t23.5-49.5q0-31-21.5-51.5t-52.5-20.5zM402 1188q-28 0-50 19.5t-22 52.5q0 31 22 50t48 19q29 0 52-19.5t23-49.5q0-31-21-51.5t-52-20.5z" horiz-adv-x="1096" unicode="&#xfc;"/><glyph d="M414-209q-56-138-124-205t-175-67q-45 0-80 14v92q36-14 84-14 123 0 194 170l95 227-388 1016h103l309-834q10-27 14-41 4-19 9-34h4l24 69 330 840h100zM636 1188q-27 0-49 19.5t-22 52.5q0 31 21.5 50t47.5 19q29 0 52.5-19.5t23.5-49.5q0-31-21.5-51.5t-52.5-20.5zM303 1188q-28 0-50 19.5t-22 52.5q0 31 22 50t48 19q29 0 52-19.5t23-49.5q0-31-21-51.5t-52-20.5z" horiz-adv-x="928" unicode="&#xff;"/><glyph d="M1221 100q-222-125-457-125-293 0-474 199t-181 522q0 326 195 544t521 218q189 0 367-76v-108q-195 94-381 94-271 0-435.5-185t-164.5-472q0-302 154.5-473.5t416.5-171.5q194 0 340 84v473h-338v90h437v-613zM1054 1770q-16-108-89.5-171.5t-182.5-63.5q-110 0-182.5 62t-81.5 173h84q6-75 55.5-117t126.5-42q68 0 120.5 43.5t61.5 115.5h88z" horiz-adv-x="1368" unicode="&#x11e;"/><glyph d="M983 76q0-289-126-423t-392-134q-148 0-305 78v96q162-90 307-90 424 0 424 448v133h-4q-121-209-369-209-189 0-308.5 137t-119.5 382 129 400 340 155q226 0 328-187h4v162h92v-948zM891 631q0 136-91.5 235t-238.5 99q-169 0-272-127t-103-336q0-210 94.5-326.5t249.5-116.5q165 0 263 107t98 262v203zM846 1423q-16-108-89.5-171.5t-182.5-63.5q-110 0-182.5 62t-81.5 173h84q6-75 55.5-117t126.5-42q68 0 120.5 43.5t61.5 115.5h88z" horiz-adv-x="1147" unicode="&#x11f;"/><glyph d="M184 0v1434h99v-1434h-99zM231 1537q-31 0-54.5 22t-23.5 56 23.5 53.5 52.5 19.5q31 0 55.5-19.5t24.5-53.5q0-32-23-55t-55-23z" horiz-adv-x="467" unicode="&#x130;"/><glyph d="M164 0v1024h92v-1024h-92z" horiz-adv-x="420" unicode="&#x131;"/><glyph d="M1077 0q-174-25-282-25-326 0-506 203t-180 524q0 344 187 550t515 206q141 0 266-24h670v-91h-571v-575h530v-90h-530v-588h604v-90h-703zM1077 1341q-130 27-272 27-273 0-433.5-183t-160.5-472q0-292 152-469.5t430-177.5q139 0 284 30v1245z" horiz-adv-x="1935" unicode="&#x152;"/><glyph d="M1057 508q0-209 96.5-329t267.5-120q174 0 336 127v-98q-157-113-350-113-294 0-395 297h-4q-116-297-433-297-226 0-355.5 149t-129.5 382q0 258 137 400.5t359 142.5q156 0 268-80t156-217h4q115 297 407 297 190 0 292-132.5t102-367.5v-41h-758zM1718 592q-6 177-85 275t-218 98q-145 0-240-98t-114-275h657zM582 965q-181 0-288.5-122t-107.5-339q0-201 105-323t287-122q185 0 285 120t100 333q0 219-99.5 336t-281.5 117z" horiz-adv-x="1886" unicode="&#x153;"/><glyph d="M139 51v113q154-98 312-98 168 0 255 69.5t87 194.5q0 110-58.5 175.5t-253.5 178.5q-218 127-276 212.5t-58 197.5q0 152 118 258t315 106q128 0 256-43v-104q-126 57-269 57-146 0-231.5-74t-85.5-188q0-110 58.5-175t252.5-177q201-114 267.5-202.5t66.5-203.5q0-165-114.5-269t-323.5-104q-74 0-170.5 23t-147.5 53zM397-430v74q50-6 86-6 160 0 160 92 0 86-145 86-32 0-64-4v188h72v-117q225 0 225-147 0-170-254-170-36 0-80 4z" horiz-adv-x="1018" unicode="&#x15e;"/><glyph d="M111 45v111q52-45 126-71t128-26q241 0 241 197 0 68-53 116t-172 99q-147 64-206.5 132.5t-59.5 166.5q0 125 95.5 202t235.5 77q132 0 226-54v-104q-114 74-236 74-101 0-163-52.5t-62-136.5q0-73 39-118.5t172-104.5q160-72 220-133.5t60-163.5q0-122-91.5-201.5t-252.5-79.5q-148 0-247 70zM277-430v74q50-6 86-6 160 0 160 92 0 86-145 86-32 0-64-4v188h72v-117q225 0 225-147 0-170-254-170-36 0-80 4z" horiz-adv-x="795" unicode="&#x15f;"/><glyph d="M598 545v-545h-98v543l-439 891h111l334-691q18-36 45-106h4q14 37 49 104l350 693h107zM716 1535q-27 0-49 19.5t-22 52.5q0 31 21.5 50t47.5 19q29 0 52.5-19.5t23.5-49.5q0-31-21.5-51.5t-52.5-20.5zM383 1535q-28 0-50 19.5t-22 52.5q0 31 22 50t48 19q29 0 52-19.5t23-49.5q0-31-21-51.5t-52-20.5z" horiz-adv-x="1106" unicode="&#x178;"/><glyph d="M911 1339q-32 13-69 13-178 0-207-201l-33-231h172v-82h-184l-98-705q-31-221-107.5-316.5t-200.5-95.5q-34 0-71 13v82q41-13 67-13 176 0 219 324l97 711h-105v82h117l33 231q20 141 96.5 212t191.5 71q45 0 82-11v-84z" unicode="&#x192;"/><glyph d="M528 1188l-157 239-160-239h-82l221 336h45l219-336h-86z" horiz-adv-x="766" unicode="&#x2c6;"/><glyph d="M573 1423q-16-108-89.5-171.5t-182.5-63.5q-110 0-182.5 62t-81.5 173h84q6-75 55.5-117t126.5-42q68 0 120.5 43.5t61.5 115.5h88z" horiz-adv-x="610" unicode="&#x2d8;"/><glyph d="M182 1188q-31 0-54.5 22t-23.5 56 23.5 53.5 52.5 19.5q31 0 55.5-19.5t24.5-53.5q0-32-23-55t-55-23z" horiz-adv-x="365" unicode="&#x2d9;"/><glyph d="M297 1188q-86 0-143.5 50.5t-57.5 133.5q0 80 57 132t144 52q88 0 144.5-50.5t56.5-133.5q0-80-58-132t-143-52zM297 1489q-57 0-92-32t-35-85 36.5-85 90.5-32q57 0 93 32.5t36 84.5q0 57-37.5 87t-91.5 30z" horiz-adv-x="594" unicode="&#x2da;"/><glyph d="M664 1423q0-103-48.5-163t-130.5-60q-66 0-151 76-64 55-119 55-102 0-102-143h-72q0 100 48 160.5t128 60.5q72 0 160-72 67-59 117-59 40 0 68 37t28 108h74z" horiz-adv-x="649" unicode="&#x2dc;"/><glyph horiz-adv-x="936" unicode="&#x2000;"/><glyph horiz-adv-x="1873" unicode="&#x2001;"/><glyph horiz-adv-x="936" unicode="&#x2002;"/><glyph horiz-adv-x="1873" unicode="&#x2003;"/><glyph horiz-adv-x="624" unicode="&#x2004;"/><glyph horiz-adv-x="468" unicode="&#x2005;"/><glyph horiz-adv-x="312" unicode="&#x2006;"/><glyph horiz-adv-x="312" unicode="&#x2007;"/><glyph horiz-adv-x="234" unicode="&#x2008;"/><glyph horiz-adv-x="374" unicode="&#x2009;"/><glyph horiz-adv-x="104" unicode="&#x200a;"/><glyph d="M145 555v90h547v-90h-547z" horiz-adv-x="815" unicode="&#x2010;"/><glyph d="M145 555v90h547v-90h-547z" horiz-adv-x="815" unicode="&#x2011;"/><glyph d="M145 555v90h547v-90h-547z" horiz-adv-x="815" unicode="&#x2012;"/><glyph d="M0 555v90h1024v-90h-1024z" horiz-adv-x="1024" unicode="&#x2013;"/><glyph d="M0 555v90h2048v-90h-2048z" horiz-adv-x="2048" unicode="&#x2014;"/><glyph d="M219 985h-106l153 449h76z" horiz-adv-x="438" unicode="&#x2018;"/><glyph d="M186 985h-73l125 449h104z" horiz-adv-x="438" unicode="&#x2019;"/><glyph d="M152-225h-74l125 444h104z" horiz-adv-x="438" unicode="&#x201a;"/><glyph d="M465 985h-105l156 449h74zM219 985h-106l153 449h76z" horiz-adv-x="686" unicode="&#x201c;"/><glyph d="M436 985h-76l123 449h107zM186 985h-73l125 449h104z" horiz-adv-x="686" unicode="&#x201d;"/><glyph d="M401-229h-75l123 448h106zM152-229h-74l125 448h104z" horiz-adv-x="686" unicode="&#x201e;"/><glyph d="M708 933l-272 30-30-734h-36l-30 734-292-30v110l312-20-30 410h116l-30-410 292 20v-110z" horiz-adv-x="756" unicode="&#x2020;"/><glyph d="M708 519l-292 30 30-320h-116l30 320-312-30v110l292-20 38 222-38 222-292-20v110l312-30-30 320h116l-30-320 292 30v-110l-272 20-38-222 38-222 272 20v-110z" horiz-adv-x="756" unicode="&#x2021;"/><glyph d="M408 477q-101 0-172.5 70t-71.5 166q0 97 71.5 169t172.5 72q99 0 169-71t70-170q0-98-70-167t-169-69z" horiz-adv-x="811" unicode="&#x2022;"/><glyph d="M1139-16q-34 0-57 23.5t-23 58.5q0 34 23 56.5t57 22.5 58-22.5 24-56.5q0-35-24-58.5t-58-23.5zM678-16q-34 0-57 23.5t-23 58.5q0 34 23 56.5t57 22.5 58-22.5 24-56.5q0-35-24-58.5t-58-23.5zM221-16q-34 0-57 23.5t-23 58.5q0 34 23 56.5t57 22.5 58-22.5 24-56.5q0-35-24-58.5t-58-23.5z" horiz-adv-x="1364" unicode="&#x2026;"/><glyph horiz-adv-x="374" unicode="&#x202f;"/><glyph d="M401 201l-278 336 278 344h113l-283-344 281-336h-111z" horiz-adv-x="635" unicode="&#x2039;"/><glyph d="M238 201h-115l285 344-283 336h113l276-336z" horiz-adv-x="635" unicode="&#x203a;"/><glyph horiz-adv-x="468" unicode="&#x205f;"/><glyph d="M963 53q-130-78-275-78-178 0-303 135t-162 390h-145v84h137q-4 48-4 102 0 71 6 135h-139v84h149q44 264 178 408.5t324 144.5q128 0 234-53v-102q-118 71-242 71-146 0-254-119.5t-145-349.5h542v-84h-553q-4-34-4-123 0-58 4-114h553v-84h-542q33-219 134-330t244-111q126 0 263 93v-99z" unicode="&#x20ac;"/><glyph d="M1294 772v533h-4l-227-533h-68l-217 533h-4v-533h-82v662h115l223-545h4l234 545h108v-662h-82zM373 1356v-584h-82v584h-221v78h526v-78h-223z" horiz-adv-x="1585" unicode="&#x2122;"/><glyph d="M598 0h-59l-441 715 441 719h59l442-717zM569 1335l-374-618 374-621 375 621z" horiz-adv-x="1135" unicode="&#x25ca;"/><glyph d="M0 1025h1025v-1025h-1025v1025z" horiz-adv-x="1025" unicode="&#x25fc;"/><glyph d="M774 1282q-30 0-53 22t-23 56q0 33 23.5 53.5t52.5 20.5q31 0 54.5-20t23.5-54q0-32-23-55t-55-23zM729 0v1024h92v-1024h-92zM612 1419q-37 29-112 29-189 0-189-254v-170h271v-84h-271v-940h-92v940h-184v84h184v178q0 162 81.5 246t203.5 84q65 0 108-19v-94z" horiz-adv-x="985" unicode="&#xfb01;"/><glyph d="M612 1419q-37 29-112 29-189 0-189-254v-170h271v-84h-271v-940h-92v940h-184v84h184v178q0 162 81.5 246t203.5 84q65 0 108-19v-94zM729 0v1516h92v-1516h-92z" horiz-adv-x="985" unicode="&#xfb02;"/></font>
</defs>
</svg>
