<svg height="512pt" preserveAspectRatio="xMidYMid meet" viewBox="0 0 512 512" width="512pt" xmlns="http://www.w3.org/2000/svg"><g transform="matrix(.1 0 0 -.1 0 512)"><path d="m2525 4973c-58-106-158-252-223-327-58-67-199-196-214-196-5 0-8-4-8-10 0-14 33-12 49 3 11 10 13 10 7 0-9-17 16-17 32-1 10 10 15 10 22-1 7-13 11-13 26 0 16 13 16 12 0-19-9-18-61-78-114-134l-98-101-41 55c-99 131-258 186-502 175-133-6-198-20-268-56-52-26-113-78-113-96 0-7-27-46-60-87-68-82-120-174-120-210 0-13-16-56-35-97-19-40-35-79-35-86 0-8 12-31 26-52 34-50 29-69-51-196-36-58-65-116-65-130 0-28 41-67 71-67 53 0 61-23 27-78l-21-35 28-24c21-18 25-27 16-36-18-18-13-42 15-68 23-22 25-28 19-80-5-45-3-63 11-84 31-47 61-55 207-55 208 0 206-3-112-158-220-108-278-140-316-178-53-54-97-135-114-214-7-30-15-63-18-72-4-17 28-18 578-18h583l-35-36c-18-19-89-81-156-137s-120-103-118-105c1-2 33 11 70 27 70 32 88 33 65 6-22-27-7-25 74 11 44 19 81 34 83 34 16 0-10-34-83-110-48-50-84-90-80-90 14 0 131 62 138 73 4 6 10 8 14 4s-7-22-24-40c-18-18-32-36-32-39 0-11 137 39 221 81 45 23 83 41 85 41 15 0-4-28-57-85-48-51-56-63-36-56 55 21 135 65 197 109 61 44 64 45 46 17-10-17-39-49-65-72-25-23-40-42-33-43 21 0 130 47 184 80l50 31-21-30c-12-16-52-57-89-92-60-55-64-61-37-55 35 8 235 104 285 137 31 21 33 21 21 4-8-11-38-44-65-74-43-44-47-52-26-46 38 11 101 44 139 73l34 25-7-28c-4-16-16-41-27-56-10-15-19-30-19-33 0-10 42 14 70 40l25 23-3-104-3-105h69 69l-5 108c-5 105-4 107 14 86 23-27 74-59 74-48 0 5-12 27-25 49-37 60-31 70 22 34 25-18 69-41 96-51l50-19-57 62c-31 34-55 63-53 65s39-16 83-41c68-39 219-105 240-105 4 0-30 36-76 80s-81 82-79 84c2 3 45-15 94-40 50-24 103-47 119-50 26-6 22 0-39 60-72 70-82 99-18 49 57-45 132-89 192-113l54-21-66 71c-37 39-67 75-67 80s33-8 73-30c78-42 247-104 247-92 0 5-13 21-30 37-42 40-37 50 9 21 35-23 106-56 119-56 3 0-34 40-82 90-47 49-86 94-86 100 0 9 34-2 133-44 37-16 48-11 25 12-24 24 1 21 67-8 37-17 69-29 71-27s-36 35-84 74c-104 85-216 183-220 195-2 4 256 8 573 8h577l-7 45c-16 113-69 212-148 280-25 22-145 86-294 158-138 67-255 126-259 130-19 19 29 27 158 27h137l35 31c42 36 50 58 38 101-11 39-1 72 31 106 19 20 20 25 8 44-12 20-11 24 8 36 26 18 26 28 1 77-23 46-18 55 43 70 28 7 46 18 56 37 18 31 15 40-74 182-30 49-55 101-55 115s12 42 26 63l27 38-36 78c-19 42-38 93-42 112-11 53-59 138-120 210-30 35-55 72-55 82 0 24-107 102-168 122-72 24-167 36-277 36-221 0-368-66-467-210l-18-25-81 85c-83 86-139 155-139 173 0 5 7 4 16-4 13-10 17-10 24 1 7 12 12 11 29-4 20-18 21-18 21-1 0 14 3 15 15 5 8-6 22-10 31-8 13 2 2 15-39 46-130 101-261 259-382 465-32 53-59 97-60 97-2 0-20-30-40-67zm-484-855c26-47 40-62 53-60 14 3 17-1 13-12-9-22-1-20 67 14 33 17 61 29 62 27 2-2-24-30-57-63-34-32-63-54-65-49-25 62-30 64-113 50-39-7-44-6-38 8 8 22 7 22-33-8-39-29-50-31-50-9 0 14-2 14-22 0-54-38-36-9 47 74 49 50 92 90 96 90 3 0 21-28 40-62zm1244-77c39-41 38-54-3-25-20 14-22 14-22 0 0-22-9-20-53 9-31 21-37 23-37 9 0-13-6-15-37-9-73 13-77 19-47 78 42 83 40 83 103 28 31-27 74-68 96-90zm-684 37c1-19 2-20 6-4s12 18 56 13c71-9 102-43 93-101-7-42-134-491-160-565-13-36-16-103-16-392 0-192 2-349 5-349s44 29 92 65c47 35 89 62 94 59 17-10 9-47-16-70-27-25-31-54-14-103 9-25 8-36-4-55-13-19-15-44-10-136l6-114 24 55c13 29 37 75 54 100 19 30 29 57 27 77-1 20 5 39 19 54 38 42 45 65 32 103-12 31-11 37 8 57 34 38 44 64 34 91-8 21-5 26 27 45 20 11 57 26 82 33 57 16 98 53 106 95 5 27-1 44-31 93-20 33-47 88-60 123-25 69-48 84-79 49-17-19-17-21 8-54 37-49 34-73-19-121-44-41-56-68-35-81 20-13 11-68-17-97-25-26-26-31-15-61 18-49 15-71-13-97-23-22-25-29-20-75 6-48 5-53-25-82-29-29-32-36-26-71 5-31 2-43-14-57-10-9-25-34-32-54l-12-36-8 65c-7 58-5 67 14 87 18 20 20 26 10 48-18 40-15 89 8 110 21 19 27 60 10 70-24 15-3 145 23 145 5 0 6 21 2 49-5 34-2 57 7 76 11 20 12 39 5 80-9 46-7 58 11 94 12 23 22 55 22 70 0 18 19 57 49 103 27 40 52 83 55 96 4 12 15 26 25 32 17 8 16 13-7 82-20 59-23 86-19 143 5 75 42 185 62 185 6 0 22-12 36-26 13-14 113-99 222-187 110-89 194-163 188-165-7-2-18 2-26 8-12 10-15 9-15-4 0-19-7-20-40-1-30 17-44 19-35 5 9-15-27-11-49 5-22 17-40 20-31 6 12-21-17-21-62-1-29 13-49 17-51 11-4-12-55 11-85 37-9 8-19 13-22 11-9-9 156-144 338-276 104-76 184-139 178-141s-36 8-67 22c-32 15-59 24-62 21s5-16 18-30c28-30 23-39-15-25-21 8-30 8-35-1-5-7-16-8-31-4-13 5-34 9-46 11-21 2-106 47-173 91-34 22 77-79 158-144 36-29 142-105 236-169 186-128 202-139 171-132-11 3-27 7-35 9s-15-2-16-8c-1-7-2-15-3-18 0-3-18 3-38 13-21 11-43 17-50 15-14-5-85 30-130 64-55 41-36 8 29-51 58-53 62-71 9-42-14 8-30 12-36 10-6-3-37 5-69 16-68 23-66 23-66 11 0-15 114-88 230-146 63-31 142-73 174-93 60-36 62-53 6-33-24 8-30 7-30-5 0-18-4-18-40 1-19 10-30 11-32 4-2-6-42 6-98 31-52 23-104 44-115 47-19 6-19 5 3-19 28-31 28-41 1-33-14 5-25 2-30-6-6-11-23-9-89 13-44 14-80 22-80 18 0-27 232-182 450-300 125-68 138-76 100-66-14 3-36 9-50 12l-25 7 23-25c29-32 28-44-3-24-27 18-49 21-40 6 10-16-2-12-66 19-56 29-73 29-47 3 20-20-1-14-64 18-72 37-75 37-49 3 12-14 19-28 17-30-5-5-169 91-214 125-65 49-40 13 53-77 52-50 95-94 95-96 0-3-184-5-410-5h-410v-180c0-153-2-180-15-180s-15 27-15 180v180h-412-413l86 83c113 110 126 129 54 80-89-59-195-116-195-104 0 5 4 13 10 16 5 3 14 14 20 24 7 14-5 11-53-15-64-35-90-43-69-22 27 27 8 26-49-3-45-22-64-27-69-19-6 9-14 8-34-5-15-10-29-15-32-13-2 3 7 13 21 22s25 23 25 31c0 14-4 13-37 0-61-26-48-9 24 31 225 123 411 244 463 298l34 36-74-25c-79-27-110-31-110-15 0 6-11 8-27 4l-28-7 24 27c33 35 22 42-28 17-67-34-144-64-176-66-16-2-41-6-54-11-17-5-22-4-17 5 6 8-4 10-36 5l-43-6 25 21c14 11 88 53 165 92 156 80 231 125 259 158 24 26 25 26-63-3-39-14-69-21-66-15 9 14-7 10-29-6-11-8-27-15-35-15-9 0 12 25 47 56 63 57 78 84 25 46-45-31-113-64-126-59-7 2-29-4-49-14-45-23-52-23-45-5 8 20-3 27-25 15-10-6-24-9-31-6-6 2 51 46 128 97s167 114 200 138c98 74 265 215 260 220-2 3-19-6-37-20-52-39-126-80-150-82-13-2-34-6-47-11-16-5-26-3-32 6-6 10-13 10-35 1-36-17-41-9-15 24 12 15 20 29 18 31s-29-8-61-23c-31-14-61-24-68-22-6 2 54 51 133 108 176 128 379 289 379 302 0 10-5 7-59-29-22-15-37-20-41-13s-22 4-51-9c-53-25-69-26-69-6 0 14-3 14-30 0-33-17-54-20-45-5 9 14-1 12-38-6-21-11-32-13-35-6-2 7-16 9-35 5-40-7-48-14 153 148 91 73 192 157 224 186 33 29 63 50 66 46 4-5 18-37 31-73 30-84 31-181 1-265-20-58-20-61-3-75 10-8 23-30 29-48 6-19 23-47 37-64 36-42 65-102 65-133 0-14 7-37 16-50 12-18 15-43 13-92-1-39 3-81 10-98 9-22 10-39 2-65-9-29-8-37 9-55 23-24 28-107 9-149-10-22-8-29 15-56 30-36 31-43 14-104-10-37-9-47 3-62 9-11 14-41 14-86 0-67 0-68-13-37-8 18-23 44-33 58-15 19-19 34-14 61 5 29 2 40-15 55-37 33-51 70-40 100 14 37 14 38-20 73-35 37-35 40-15 89 15 35 14 36-15 70-34 39-36 52-14 94 15 31 15 31-35 84-28 30-51 58-51 63s11 26 25 46c30 44 31 62 6 76-37 19-49 11-67-42-17-53-48-116-84-173s6-135 80-150c19-4 57-18 83-32 46-23 47-25 42-57-6-28-2-39 24-69 27-30 30-39 21-62-16-42-12-62 21-100 25-28 30-41 26-64-5-22 1-39 20-68 14-21 39-65 55-98l28-60v58c0 32 5 78 11 103 10 37 9 48-5 68-12 19-14 39-9 86 6 57 4 63-21 89-24 25-26 32-16 51l11 21 37-27c20-15 57-43 81-61s48-30 53-27 7 169 4 413c-2 231-1 414 5 422 5 9 7 0 3-26-4-32-3-36 5-17 6 12 15 22 21 22 5 0 10 7 10 15s5 15 10 15c6 0 8 17 5 43-4 32-3 36 4 17 5-14 9-22 10-19 1 4 23 85 50 180 27 96 51 190 54 210 6 41-16 84-39 75-9-3-11 0-7 11 5 13 2 15-11 10-10-4-26-7-37-7-15 0-19-8-21-37l-1-38-4 38c-4 35-6 37-39 37-20 0-34 5-35 13 0 10-2 10-6 0-5-14-59-18-66-5-2 4-2 1-1-5 2-8-6-13-20-13-31 0-48-22-44-59 2-17-1-31-7-33-5-2-11 20-13 48-3 45 0 53 21 67 28 18 58 23 145 26 58 1 62-1 63-21zm424-48c3 0 5 8 5 17 0 13 3 14 11 6 9-9 8-21-5-47-9-20-20-36-24-36-8 0-77 70-102 104-11 14-1 12 47-13 35-17 65-31 68-31zm-498-2c-3-8-6-5-6 6-1 11 2 17 5 13 3-3 4-12 1-19zm-57-18c0-16-2-30-4-30s-6 14-8 30c-3 17-1 30 4 30 4 0 8-13 8-30zm197-12c-3-7-5-2-5 12s2 19 5 13c2-7 2-19 0-25zm-10-40c-3-8-6-5-6 6-1 11 2 17 5 13 3-3 4-12 1-19zm-180-45c-3-10-5-4-5 12 0 17 2 24 5 18 2-7 2-21 0-30zm60-35c-3-7-5-2-5 12s2 19 5 13c2-7 2-19 0-25zm110-25c-3-10-5-4-5 12 0 17 2 24 5 18 2-7 2-21 0-30zm-50-65c-2-18-4-4-4 32s2 50 4 33c2-18 2-48 0-65zm-100-5c-3-10-5-2-5 17s2 27 5 18c2-10 2-26 0-35zm50-65c-2-13-4-5-4 17-1 22 1 32 4 23 2-10 2-28 0-40zm80 5c-3-10-5-4-5 12 0 17 2 24 5 18 2-7 2-21 0-30zm-40-95c-2-18-4-6-4 27s2 48 4 33 2-42 0-60zm-70 40c-3-7-5-2-5 12s2 19 5 13c2-7 2-19 0-25zm40-65c-3-10-5-4-5 12 0 17 2 24 5 18 2-7 2-21 0-30zm-30-5c-3-7-5-2-5 12s2 19 5 13c2-7 2-19 0-25zm10-60c-3-8-6-5-6 6-1 11 2 17 5 13 3-3 4-12 1-19z"/><path d="m553 1953c-8-3-13-25-13-58 0-48 2-54 23-57 22-3 22-6 25-163l2-161 140-139 140-140v-218-218l-77 3-78 3-3 123-3 122h-59-60v-185-185h200 200v308 307l-140 140-140 140v127c0 146-3 142 101 136l54-3 3-72 3-73h59 60v129c0 108-3 130-16 135-19 7-403 7-421-1z"/><path d="m4120 1901c0-54 2-59 25-65l25-6v-157-157l140-142 140-141-2-214-3-214-77-3-78-3v126 125h-60-60v-185-185h200 200v303 302l-140 140-140 140 2 135 3 135 54 3c97 6 101 2 101-78v-70h60 60v129c0 108-3 130-16 135-9 3-110 6-225 6h-209z"/><path d="m1050 1504c0-27 5-37 20-41 20-5 20-14 20-394v-389h55 55v39c0 26-5 41-15 45-13 5-15 32-13 183l3 178 93 3 92 3v204 205h-155-155zm230-169v-125h-55-55v125 125h55 55z"/><path d="m1420 1500c0-29 4-40 15-40 13 0 15-45 15-345 0-298-2-346-15-351-10-4-15-20-15-45v-39h75 75v39c0 30-4 40-20 44-20 5-20 14-20 346 0 330 1 341 20 351 14 8 20 21 20 45v35h-75-75z"/><path d="m1600 1500c0-29 4-40 15-40 13 0 15-48 15-367 0-203 3-378 6-390 5-19 13-23 45-23h39v188c0 188 0 189 25 212l25 23 25-23c25-23 25-25 25-196 0-95 3-179 6-188 5-12 20-16 60-16h54v40c0 29-4 40-15 40-13 0-15 25-15 165v165l-36 40-36 40 36 40 36 40v145 145h-155-155zm228-129 3-84-52-53c-29-29-56-51-61-48-10 6-11 258-1 268 4 4 30 6 58 4l50-3z"/><path d="m1970 1505c0-24 6-37 20-45 19-10 20-21 20-351 0-332 0-341-20-346-16-4-20-14-20-44v-39h75 75v39c0 25-5 41-15 45-23 8-23 696 0 696 11 0 15 11 15 40v40h-75-75z"/><path d="m2160 1450v-90h34c34 0 35 1 38 48 3 39 6 47 23 47 20 0 20-8 23-388l2-387h55 55v40c0 29-4 40-15 40-13 0-15 46-15 350 0 343 0 350 20 350 17 0 20-7 20-51v-50l38 3 37 3 3 88 3 87h-161-160z"/><path d="m2664 1527c-3-8-4-47-2-88l3-74 38-3 37-3v50c0 44 3 51 20 51 20 0 20-7 20-390v-390h60 60v39c0 30-4 40-20 44-20 5-20 12-18 349l3 343 23 3c20 3 22 0 22-47v-51h35 35v90 90h-155c-121 0-157-3-161-13z"/><path d="m3010 1500c0-29 4-40 15-40 13 0 15-50 15-390v-390h77c75 0 78 1 115 37l38 37 38-37 38-37h92 92v40c0 29-4 40-15 40-13 0-15 50-15 391v390l-42-3-43-3-3-387c-2-308-5-388-15-388-7 0-30 17-50 38l-37 38v282 282h-40-40v-283-283l-39-38c-72-71-71-77-71 359v385h-55-55z"/><path d="m3560 1504c0-27 5-37 20-41 20-5 20-14 20-350 0-339 0-345-21-350-16-5-19-12-17-42l3-36 73-3 72-3v39c0 26-5 42-15 46-23 8-23 696 0 696 11 0 15 11 15 40v40h-75-75z"/><path d="m3750 1500c0-29 4-40 15-40 13 0 15-50 15-390v-390h40 40v235c0 129 4 235 8 235s29-22 55-48l47-48v-187-187h60 60v39c0 30-4 40-20 44-20 5-20 14-20 391v386h-40-40v-175c0-96-4-175-9-175-4 0-29 22-55 50l-46 49v126 125h-55-55z"/><path d="m1700 545c0-14 5-25 10-25 6 0 10-88 10-245v-245h95c94 0 95 0 95 24 0 14-4 28-10 31-5 3-10 33-10 66 0 56-1 59-25 59s-25-2-25-66v-65l-32 3-33 3-3 243-2 242h-35c-31 0-35-3-35-25z"/><path d="m1977 532-37-38v-232-232h25 24l3 137 3 138h30 30l3-137 3-138h34c30 0 35 3 35 24 0 14-4 28-10 31-6 4-10 97-10 246v239h-48c-42 0-52-4-85-38zm83-92v-80h-35-35v57c0 44 5 62 22 80 39 42 48 31 48-57z"/><path d="m2150 546c0-14 5-28 10-31 6-4 10-97 10-246v-239h85 86l-3 78c-3 71-5 77-25 80s-22-2-25-50c-3-52-4-53-36-56l-32-3 2 218 3 218h30c25 0 30-4 33-27 3-22 9-28 28-28 22 0 24 3 24 55v55h-95c-94 0-95 0-95-24z"/><path d="m2370 546c0-14 5-28 10-31 6-4 10-97 10-246v-239h25 25v119c0 94 3 121 15 131 13 10 19 10 35-5 18-16 20-31 20-132v-113h35c31 0 35 3 35 25 0 14-4 25-10 25s-10 41-10 102c0 95-2 104-25 128l-25 26 25 24c23 22 25 30 25 117v93h-95c-94 0-95 0-95-24zm140-83c0-48-4-61-27-85-15-15-30-28-35-28-4 0-8 38-8 85v85h35 35z"/><path d="m2590 546c0-14 5-28 10-31 6-4 10-97 10-246v-239h95c94 0 95 0 95 24 0 14-4 28-10 31-6 4-10 97-10 246v239h-95c-94 0-95 0-95-24zm140-246v-220h-35-35v213c0 118 3 217 7 220 3 4 19 7 35 7h28z"/><path d="m2810 545c0-14 5-25 10-25 6 0 10-29 10-68v-68l60-59 60-59v-94-93l-32 3c-32 3-33 4-36 56-3 48-5 53-25 50s-22-9-25-80l-3-78h86 85v133 133l-60 59c-60 59-61 61-58 110 3 48 4 50 33 50 25 0 30-4 33-27 3-22 9-28 28-28 22 0 24 3 24 55v55h-95c-95 0-95 0-95-25z"/><path d="m3030 546c0-14 5-28 10-31 6-3 10-37 10-74v-68l60-58 61-58-3-86-3-86-32-3-33-3v55c0 53-1 56-25 56-25 0-25-1-25-80v-80h85 85v128 128l-60 59-61 60 3 55c3 54 4 55 33 55 25 0 30-4 33-27 3-22 9-28 28-28 22 0 24 3 24 55v55h-95c-94 0-95 0-95-24z"/><path d="m3250 546c0-14 5-28 10-31 6-4 10-97 10-246v-239h85 86l-3 78c-3 71-5 77-25 80s-22-2-25-50c-3-52-4-53-35-56l-33-3v115 116h30c25 0 30 4 30 25s-5 25-30 25h-31l3 78 3 77h30c25 0 30-4 33-27 3-22 9-28 28-28 22 0 24 3 24 55v55h-95c-94 0-95 0-95-24z"/><path d="m3471 544c0-11 3-14 6-6 3 7 2 16-1 19-3 4-6-2-5-13z"/><path d="m3501 541c0-12 2-13 6-2 5 11 7 11 15 0 8-12 10-12 15 0 5 11 7 11 14 0s9-11 9 2c0 11-9 16-30 16s-30-5-29-16z"/></g></svg>